<svg width="64" height="64" viewBox="0 0 64 64" fill="none" xmlns="http://www.w3.org/2000/svg">
<rect width="64" height="64" fill="#FAFAFA" style="fill:#FAFAFA;fill:color(display-p3 0.9804 0.9804 0.9804);fill-opacity:1;"/>
<path d="M28.2952 6.49711C27.4761 6.48712 24.9581 6.71716 21.8601 8.25649C18.7458 9.80394 15.8915 10.6195 14.3918 11.5736C12.7412 12.6237 11.7157 13.5896 10.8033 14.9022C8.88243 17.6658 7.65205 19.7925 6.84867 21.2123C6.17474 22.4034 5.11785 24.6356 4.32882 26.4511C3.53979 28.2667 3.09092 29.6198 2.73374 32.8618C2.37655 36.1037 2.12464 41.1935 2.01459 43.9996C1.85431 48.0865 3.04719 50.4919 3.99231 51.8052C4.43402 52.4189 7.19505 53.8861 12.0668 56.476C14.6128 57.8296 17.5489 58.7839 19.1427 59.3651C20.7366 59.9463 20.9606 60.0031 25.2074 59.9729C29.4542 59.9428 37.717 59.8239 42.6432 59.6257C48.9214 59.3731 50.6556 58.7457 51.8043 58.2291C53.8353 57.3157 56.73 55.1631 59.6218 52.8164C60.8064 51.8551 61.2929 51.2121 61.5847 50.7435C61.8765 50.2749 61.9273 49.9625 62.0285 47.864C62.1297 45.7655 62.2799 41.8904 62.3308 39.5839C62.3954 36.6579 61.9404 34.3181 61.3984 31.4314C61.0607 29.6327 60.9897 28.7746 60.6663 27.7714C59.9609 25.583 58.8398 23.0759 57.1624 20.0489C56.0887 18.1112 54.4661 15.4127 53.025 13.3456C50.5472 9.79173 48.5677 8.17065 47.3792 7.38656C44.761 5.65927 42.3564 5.14407 39.5758 5C35.3452 5.39245 32.4321 5.69247 29.5148 5.75653C28.2352 5.78378 27.3632 5.80034 25.9318 5.75367" stroke="black" style="stroke:black;stroke-opacity:1;" stroke-linecap="round"/>
<path d="M31.4539 33.2641C31.4392 33.2777 31.2202 33.4767 30.8599 33.9237C30.4761 34.3997 30.5484 35.0947 30.6184 35.5988C30.6503 35.829 30.8293 35.9726 31.2096 36.0585C32.1864 36.2792 33.1039 36.0177 33.5841 35.6913C33.8114 35.5368 33.9628 35.346 34.0504 35.1285C34.2301 34.6827 34.092 34.1973 33.8952 33.8154C33.559 33.4718 33.0966 33.2924 32.5996 33.2676C32.3563 33.2567 32.1312 33.2494 31.4874 33.3023" stroke="black" style="stroke:black;stroke-opacity:1;" stroke-linecap="round"/>
<path d="M31.4873 33.2162C31.486 32.8056 31.2808 31.349 30.7008 30.0645C30.0295 28.5778 28.8693 26.3171 27.9734 24.0484C26.7133 20.8572 23.8554 17.5062 23.5484 16.5603C23.4153 15.4254 23.1918 13.7894 22.6925 12.647C22.5621 12.3977 22.4428 12.1374 22.3198 11.8691" stroke="black" style="stroke:black;stroke-opacity:1;" stroke-linecap="round"/>
<path d="M33.1399 32.3502C33.1781 31.6983 33.1389 29.9247 32.2003 26.7529C31.6935 25.0405 30.5628 23.7286 29.9799 22.4878C29.4965 21.4586 29.2448 20.1588 28.8882 18.5839C28.2371 16.4438 27.1943 14.0614 26.001 11.9925C25.4401 11.0629 24.97 10.3776 24.4354 9.64612" stroke="black" style="stroke:black;stroke-opacity:1;" stroke-linecap="round"/>
<path d="M35.571 33.8498C35.571 33.8351 36.6263 33.8201 38.3733 33.7778C39.3659 33.7538 41.7002 32.8314 46.5433 31.0876C49.3366 30.0818 52.8774 29.0195 54.9529 28.3888C57.0284 27.7582 57.5483 27.6396 57.939 27.5574C58.3298 27.4753 58.5756 27.4332 58.8289 27.3899" stroke="black" style="stroke:black;stroke-opacity:1;" stroke-linecap="round"/>
<path d="M34.6531 32.025C35.8329 32.0111 39.226 31.6756 44.1632 29.6315C46.472 28.6756 50.1217 27.5231 52.4053 26.7964C54.6889 26.0698 55.5283 25.8859 56.1818 25.7207C56.8353 25.5554 57.2776 25.4142 57.7333 25.2687" stroke="black" style="stroke:black;stroke-opacity:1;" stroke-linecap="round"/>
<path d="M35.3806 35.4427C35.3806 35.429 35.3806 35.7685 35.4079 36.3939C35.4292 36.8799 36.9662 39.9161 39.4954 45.1945C41.5625 49.5086 42.2047 51.941 42.441 52.8504C43.2957 55.6481 43.6884 56.9187 43.8959 57.4925C43.9813 57.7604 44.0266 57.9813 44.1122 58.2687" stroke="black" style="stroke:black;stroke-opacity:1;" stroke-linecap="round"/>
<path d="M33.6132 37.3398C33.6132 37.3667 33.6132 38.3342 33.736 40.1678C33.8494 41.8613 35.4782 45.0334 37.3841 49.356C39.0551 54.2399 39.2379 55.0686 39.3966 55.722C39.4575 56.019 39.4785 56.2459 39.6428 57.0263" stroke="black" style="stroke:black;stroke-opacity:1;" stroke-linecap="round"/>
<path d="M31.6657 37.4874C31.6463 37.4874 31.4319 37.4874 30.9969 37.5256C30.5038 37.569 28.1557 39.7343 24.8164 42.9851C23.2045 44.5543 22.758 45.2384 22.0653 46.1059C20.7046 47.8101 18.6011 50.3109 16.5436 52.4258C15.6469 53.3327 15.1953 53.7014 14.6244 54.165C14.3522 54.4053 14.1155 54.6559 13.8717 54.914" stroke="black" style="stroke:black;stroke-opacity:1;" stroke-linecap="round"/>
<path d="M12.3028 54.0255C12.499 53.7808 13.4805 52.748 14.724 51.5179C15.6004 50.651 17.1889 49.3934 19.2524 47.5738C20.4338 46.5321 21.0828 45.3366 22.5901 43.582C23.8362 42.2029 26.0595 39.8316 27.3921 38.4853C28.7246 37.1389 29.0991 36.8894 29.5366 36.5613" stroke="black" style="stroke:black;stroke-opacity:1;" stroke-linecap="round"/>
<path d="M30.5693 31.9565C30.3422 31.936 29.1358 31.238 27.0453 29.7656C24.2967 27.8296 20.7561 26.6705 18.3455 25.7763C15.8366 24.8456 12.1937 22.9956 9.72231 22.3787C9.16626 22.2602 8.81627 22.1403 8.51278 22.0732C8.20929 22.006 7.9629 21.9952 7.70905 21.9841" stroke="black" style="stroke:black;stroke-opacity:1;" stroke-linecap="round"/>
<path d="M7.09076 24.2695C7.56953 24.2724 9.12277 24.4755 10.1329 24.9767C11.3374 25.5744 12.4881 26.3797 13.5189 27.0929C14.6386 27.8676 15.5066 28.2983 17.2976 29.24C18.6886 29.9714 21.8772 31.5915 24.3464 32.8306C24.9817 33.1251 26.0364 33.5782 26.8146 33.8938C27.5927 34.2093 28.0623 34.3737 28.6761 34.5454" stroke="black" style="stroke:black;stroke-opacity:1;" stroke-linecap="round"/>
<path d="M21.2982 10.4301C21.752 10.3039 23.0899 9.95247 24.7347 9.31092C27.3907 8.27496 31.7117 7.90328 34.2501 8.00346C35.4609 8.05125 37.7056 8.47556 39.144 8.69758C40.1899 8.859 41.4038 9.0276 42.8823 9.42064C45.8678 10.2143 46.8814 11.322 47.7655 12.3429C48.9537 13.7148 49.8625 14.54 50.8215 15.4669C51.804 16.4165 52.9405 17.9322 53.6938 18.7618C54.3364 19.4695 55.0017 20.0462 55.6142 20.8258C56.3604 21.7756 56.6766 22.7238 57.2205 24.0705C58.1665 26.4129 58.0682 27.4987 58.443 28.6203C58.6529 29.2483 58.8246 30.3944 59.0075 32.6435C59.2942 36.171 59.0475 39.3088 58.8755 40.9257C58.6033 43.4847 56.9595 47.4401 56.1386 49.0008C55.6649 49.9016 54.5869 51.557 53.4824 52.7791C52.629 53.7233 50.9806 54.322 49.0442 54.9568C48.3309 55.1906 47.6108 55.3854 45.4976 55.6387C43.8309 55.8385 40.9258 55.8507 36.9315 55.917C32.9371 55.9832 27.9333 56.0182 24.4178 55.9698C19.0241 55.8956 16.6519 55.5743 15.8759 55.3902C14.3396 55.0258 11.6633 52.9706 10.1911 52.061C8.45935 50.9911 7.02763 50.662 5.43623 49.0238C4.37596 47.9324 4.56209 45.3833 4.27202 42.3223C3.80676 37.4127 4.84484 35.0412 5.14171 32.4315C5.56564 28.7048 5.74202 26.364 5.99176 25.3865C6.33198 24.0549 6.98307 22.23 7.61376 21.467C8.4574 20.4464 9.77743 19.1946 11.0284 18.1372C13.6042 15.96 15.7698 14.8274 16.9375 13.8628C18.6824 12.1046 19.4555 11.417 19.8178 11.1661C20.0044 11.0582 20.1966 10.9898 20.3946 10.9194" stroke="black" style="stroke:black;stroke-opacity:1;" stroke-linecap="round"/>
</svg>
