<svg width="64" height="64" viewBox="0 0 64 64" fill="none" xmlns="http://www.w3.org/2000/svg">
<rect width="64" height="64" fill="#FAFAFA" style="fill:#FAFAFA;fill:color(display-p3 0.9804 0.9804 0.9804);fill-opacity:1;"/>
<path d="M10.169 42.9474C10.2726 43.3418 11.0919 44.5276 12.2457 45.4324C13.3909 46.3303 14.6568 47.1973 17.6669 48.7858C19.2627 49.628 20.4936 49.8858 21.7864 50.3473C23.6636 51.0172 25.1954 51.8064 27.8404 52.728C30.2228 53.5581 33.2372 54.5085 35.387 54.8872C39.7806 55.6611 42.3566 52.8052 43.8685 51.7889C45.3725 50.7778 48.3371 49.1092 51.1106 47.6204C53.5074 46.3339 54.9862 45.4052 55.9736 44.6646C56.546 44.2353 57.1783 43.8761 57.6169 43.4312C58.3676 42.6699 58.0225 41.2655 57.8085 40.0782C57.5403 38.5905 56.0069 38.2178 54.7 37.6106C53.0099 36.8254 50.5605 36.4491 49.3851 35.9216C48.3549 35.4594 47.4101 34.8696 46.0262 34.2288C44.9675 33.7386 43.7637 32.954 42.3254 32.1022C40.7386 31.1626 39.0192 31.1794 37.7208 30.7549C36.2735 30.2817 34.8085 29.7811 33.5985 29.5634C32.4251 29.3523 31.3602 29.004 29.6115 29.019C28.0691 29.0323 25.9586 30.7007 23.1056 32.1607C20.3337 33.5793 18.9893 33.963 15.6748 35.2752C13.5355 36.1221 11.9684 37.2312 10.6484 38.2689C9.15693 39.4053 8.12038 40.3781 8.07666 40.8483C8.13554 41.0548 8.359 41.1961 9.09435 41.7592" stroke="black" style="stroke:black;stroke-opacity:1;" stroke-linecap="round"/>
<path d="M10.169 37.4117C10.2726 37.7909 11.0919 38.9311 12.2457 39.8011C13.3909 40.6645 14.6568 41.4981 17.6669 43.0255C19.2627 43.8353 20.4936 44.0832 21.7864 44.5269C23.6636 45.1711 25.1954 45.9299 27.8404 46.8161C30.2228 47.6143 33.2372 48.5282 35.387 48.8923C39.7806 49.6364 42.3566 46.8904 43.8685 45.9131C45.3725 44.9409 48.3371 43.3365 51.1106 41.9049C53.5074 40.6679 54.9862 39.775 55.9736 39.0629C56.546 38.6501 57.1783 38.3046 57.6169 37.8769C58.3676 37.1448 58.0225 35.7945 57.8085 34.6529C57.5403 33.2223 56.0069 32.864 54.7 32.2802C53.0099 31.5252 50.5605 31.1633 49.3851 30.6561C48.3549 30.2117 47.4101 29.6446 46.0262 29.0284C44.9675 28.557 43.7637 27.8026 42.3254 26.9836C40.7386 26.0802 39.0192 26.0963 37.7208 25.6881C36.2735 25.2331 34.8085 24.7517 33.5985 24.5425C32.4251 24.3395 31.3602 24.0046 29.6115 24.019C28.0691 24.0318 25.9586 25.636 23.1056 27.0399C20.3337 28.4039 18.9893 28.7729 15.6748 30.0346C13.5355 30.8489 11.9684 31.9154 10.6484 32.9131C9.15693 34.0058 8.12038 34.9412 8.07666 35.3933C8.13554 35.5919 8.359 35.7277 9.09435 36.2692" stroke="black" style="stroke:black;stroke-opacity:1;" stroke-linecap="round"/>
<path d="M10.169 30.4117C10.2726 30.7909 11.0919 31.9311 12.2457 32.8011C13.3909 33.6645 14.6568 34.4981 17.6669 36.0255C19.2627 36.8353 20.4936 37.0832 21.7864 37.5269C23.6636 38.1711 25.1954 38.9299 27.8404 39.8161C30.2228 40.6143 33.2372 41.5282 35.387 41.8923C39.7806 42.6364 42.3566 39.8904 43.8685 38.9131C45.3725 37.9409 48.3371 36.3365 51.1106 34.9049C53.5074 33.6679 54.9862 32.775 55.9736 32.0629C56.546 31.6501 57.1783 31.3046 57.6169 30.8769C58.3676 30.1448 58.0225 28.7945 57.8085 27.6529C57.5403 26.2223 56.0069 25.864 54.7 25.2802C53.0099 24.5252 50.5605 24.1633 49.3851 23.6561C48.3549 23.2117 47.4101 22.6446 46.0262 22.0284C44.9675 21.557 43.7637 20.8026 42.3254 19.9836C40.7386 19.0802 39.0192 19.0963 37.7208 18.6881C36.2735 18.2331 34.8085 17.7517 33.5985 17.5425C32.4251 17.3395 31.3602 17.0046 29.6115 17.019C28.0691 17.0318 25.9586 18.636 23.1056 20.0399C20.3337 21.4039 18.9893 21.7729 15.6748 23.0346C13.5355 23.8489 11.9684 24.9154 10.6484 25.9131C9.15693 27.0058 8.12038 27.9412 8.07666 28.3933C8.13554 28.5919 8.359 28.7277 9.09435 29.2692" stroke="black" style="stroke:black;stroke-opacity:1;" stroke-linecap="round"/>
<path d="M16.5606 47.5019C16.5606 47.3304 16.4633 46.3779 16.2637 45.4834C16.1589 45.0133 16.1269 44.3866 16.0996 43.3666C16.0567 41.755 16.0781 39.8359 16.1297 38.2159C16.1958 36.1422 16.3448 34.6281 16.4234 34.036C16.5005 33.4546 16.4909 32.79 16.5556 32.2949C16.5808 32.1016 16.7497 32.0607 16.9368 32.0352C17.7343 31.9266 18.2949 32.3725 18.819 32.676C19.4508 33.0418 20.2206 33.5968 20.9847 33.9738C22.0344 34.4918 23.6972 34.8696 24.5539 35.1725C25.0973 35.3647 25.8648 35.6464 26.5574 36.0373C27.1033 36.3453 27.8447 36.6747 28.7791 36.9811C29.6641 37.2713 30.2301 37.533 30.6389 37.9331C31.5316 38.807 30.7926 41.1079 30.7313 43.528C30.6861 45.3134 30.6071 48.6329 30.5556 50.419C30.5041 52.205 30.4864 52.357 30.4702 52.5163C30.454 52.6757 30.4398 52.8377 30.3968 53.0186" stroke="black" style="stroke:black;stroke-opacity:1;" stroke-linecap="round"/>
<path d="M23.0767 50.0186C23.0767 49.9912 23.0853 48.5426 23.1486 46.0576C23.5017 43.2614 23.692 41.8051 23.7992 40.8506C23.863 40.4895 23.9682 39.9457 24.0767 39.0186" stroke="black" style="stroke:black;stroke-opacity:1;" stroke-linecap="round"/>
<path d="M43.9383 40.0186C43.9383 40.2162 44.0966 40.8432 44.0746 44.4434C43.8175 45.786 43.6785 46.4673 43.4866 48.3718C43.4164 49.0985 43.3019 50.0321 43.0767 51.0186" stroke="black" style="stroke:black;stroke-opacity:1;" stroke-linecap="round"/>
<path d="M50.5118 36.0186C50.4788 36.5497 50.3408 37.9105 50.2109 39.0662C49.7672 43.0131 50.5537 44.8498 50.6926 45.5385C50.7872 45.927 50.839 46.3164 50.8745 46.797C50.91 47.0992 50.9811 47.5198 51.0767 48.0186" stroke="black" style="stroke:black;stroke-opacity:1;" stroke-linecap="round"/>
<path d="M16.0767 35.0186C16.0767 34.7886 15.9707 34.0429 15.8298 33.4009C15.6092 32.4438 15.3309 31.0846 15.1502 29.3607C15.0871 28.1096 15.0819 26.0946 15.0767 24.0186" stroke="black" style="stroke:black;stroke-opacity:1;" stroke-linecap="round"/>
<path d="M25.0767 31.0186C25.0767 30.7719 24.6705 29.642 24.222 28.0449C23.9717 27.1535 23.6783 26.38 23.5672 25.1399C23.5225 22.1666 23.4624 21.683 23.3987 21.3858C23.3351 21.2476 23.2078 21.1348 23.0767 21.0186" stroke="black" style="stroke:black;stroke-opacity:1;" stroke-linecap="round"/>
<path d="M35.4275 29.4379C35.4171 28.6249 35.3303 26.2031 35.2332 24.8285C35.1732 23.9804 35.032 22.3295 35.0906 20.2486C35.1538 18.0027 35.5205 16.6122 35.6419 15.6057C35.6586 15.4675 35.7507 15.3596 35.8524 15.275C36.5473 14.6967 38.1336 15.2429 38.7566 15.488C39.3953 15.7394 40.3374 16.1311 41.9773 16.8787C43.6257 17.6302 44.2165 18.0131 44.7657 18.3075C45.4009 18.6481 46.8635 19.0878 47.9678 19.7265C49.0453 20.3496 49.4349 20.7766 49.6935 20.8938C49.9669 21.0179 50.0907 22.504 50.0754 24.8295C50.0588 27.3599 49.9164 28.7808 49.8887 29.4331C49.858 30.1541 49.7043 31.3873 49.4726 33.1655C49.4182 33.5698 49.38 33.8435 49.3445 34.0837C49.3091 34.324 49.2775 34.5226 49.2247 35.0186" stroke="black" style="stroke:black;stroke-opacity:1;" stroke-linecap="round"/>
<path d="M39.0767 22.9281C39.0767 22.9396 39.0947 23.1085 39.1485 23.4248C39.2029 23.7442 39.3735 23.919 39.5503 24.0002C39.6435 24.043 39.7525 24.0066 39.8368 23.9357C39.921 23.8647 39.9796 23.7391 40.0168 23.5882C40.165 22.9866 40.0016 22.476 39.9182 22.2207C39.8769 22.0943 39.7821 22.0514 39.6964 22.0283C39.6107 22.0052 39.5226 22.0229 39.446 22.0833C39.3693 22.1437 39.3067 22.2462 39.2168 22.3555" stroke="black" style="stroke:black;stroke-opacity:1;" stroke-linecap="round"/>
<path d="M39.0767 28.5804C39.1183 28.8223 39.4189 29.5094 40.0124 29.9626C40.1499 30.0676 40.34 30.0089 40.4878 29.9167C40.8119 29.7145 40.9418 29.3411 41.0258 29.0409C41.1143 28.7242 41.0812 28.3909 40.9741 28.143C40.7324 28.0246 40.3464 27.9981 39.9251 28.0325C39.7309 28.0669 39.5762 28.1358 39.3645 28.299" stroke="black" style="stroke:black;stroke-opacity:1;" stroke-linecap="round"/>
<path d="M46.0767 25.7649C46.0767 26.0078 46.1638 26.6173 46.3677 26.8511C46.5544 27.0652 46.9169 27.024 47.1986 26.9945C47.492 26.9638 47.7228 26.727 47.906 26.4836C48.0812 26.2508 48.0991 25.8643 48.0584 25.4557C48.0405 25.2758 47.935 25.1648 47.823 25.0928C47.5719 24.9945 47.2795 24.9995 46.9852 25.0743C46.8401 25.1169 46.7033 25.1689 46.4642 25.2225" stroke="black" style="stroke:black;stroke-opacity:1;" stroke-linecap="round"/>
<path d="M46.5191 31.7691C46.5444 31.9129 46.7267 32.4647 47.014 32.9099C47.08 33.0122 47.2067 33.0356 47.3063 33.0076C47.8902 32.8438 48.0944 31.9639 48.0755 31.7103C48.0548 31.4327 47.7551 31.2698 47.5434 31.1292C47.3174 31.0426 47.0823 31.0126 46.8227 31.0195C46.679 31.0265 46.5107 31.0404 46.0767 31.1333" stroke="black" style="stroke:black;stroke-opacity:1;" stroke-linecap="round"/>
<path d="M57.6383 29.0186C57.6383 30.0916 57.7623 32.464 57.9148 32.9926C58.2868 34.2821 57.9183 36.6611 57.7927 37.9276C57.7198 38.6624 57.5597 39.1872 57.2786 40.8828C57.2283 41.4069 57.2283 41.9232 57.2144 42.2709C57.2004 42.6186 57.1724 42.7822 57.0767 43.0186" stroke="black" style="stroke:black;stroke-opacity:1;" stroke-linecap="round"/>
<path d="M10.0767 43.0186C9.91151 42.8448 9.3946 42.3284 9.03467 41.8113C8.2801 40.7273 8.61164 39.8033 8.51881 38.9863C8.42776 38.185 8.34046 37.5321 8.25366 37.1798C8.15881 36.7948 8.13607 35.2275 8.1135 33.0736C8.00628 31.3472 8.10196 29.9488 8.82112 28.5986C9.01104 28.3226 9.14362 28.2448 9.60093 28.0186" stroke="black" style="stroke:black;stroke-opacity:1;" stroke-linecap="round"/>
</svg>
