<svg width="64" height="64" viewBox="0 0 64 64" fill="none" xmlns="http://www.w3.org/2000/svg">
<rect width="64" height="64" fill="#FAFAFA" style="fill:#FAFAFA;fill:color(display-p3 0.9804 0.9804 0.9804);fill-opacity:1;"/>
<path d="M13.471 23.3394C13.4448 23.1151 13.8184 21.7535 14.7745 20.2977C16.4291 17.7783 17.8025 16.8473 18.8893 15.8844C19.9501 14.9446 21.7993 14.2169 23.439 13.5432C25.2543 12.7972 27.3415 11.861 28.6378 11.1929C29.1815 11.0215 29.6602 10.9115 30.1297 10.8252C30.4318 10.7598 30.8635 10.6506 31.3083 10.5381" stroke="black" style="stroke:black;stroke-opacity:1;" stroke-linecap="round"/>
<path d="M12.4766 24.8105C12.5532 25.0584 13.9055 27.2036 15.0659 28.8301C15.299 29.1569 15.7028 29.5083 16.7762 30.9197C17.8495 32.3311 19.6088 34.7694 20.8446 36.3648C22.0803 37.9602 22.7392 38.6388 23.5206 39.5871C24.3021 40.5354 25.1861 41.7328 26.2638 43.0232C27.3415 44.3135 28.586 45.6606 29.5834 46.855C30.5807 48.0494 31.2931 49.0504 32.016 50.0049C32.7388 50.9594 33.4506 51.8371 34.1839 52.7414" stroke="black" style="stroke:black;stroke-opacity:1;" stroke-linecap="round"/>
<path d="M33.5625 10.8721C33.7051 10.9964 34.8039 11.8832 35.7867 12.7386C36.5783 13.4275 37.6168 14.5778 38.7556 15.7315C39.4887 16.4742 39.9776 17.0481 42.5289 19.9233C43.7446 21.2933 44.2288 22.1909 44.6772 22.8935C45.5782 24.305 46.7017 25.691 47.4195 26.6411C47.8703 27.2379 48.3061 27.9891 49.5 29.5C52.049 32.7259 53.4288 34.5933 53.5 35" stroke="black" style="stroke:black;stroke-opacity:1;" stroke-linecap="round"/>
<path d="M34.6223 52.8896C34.8633 52.9908 35.5932 53.3716 36.245 53.6738C37.262 54.1455 39.0288 53.7771 39.8345 53.699C40.6493 53.62 41.626 53.3784 42.4013 53.1232C43.2693 52.8375 43.7864 52.3197 44.3674 51.8759C44.5131 51.7647 44.6147 51.6218 44.6275 51.4492C44.7087 50.3586 43.2943 49.4552 42.5005 48.872C42.1688 48.6283 42.0954 48.0712 41.8598 47.6479C41.497 46.9957 40.3814 47.8718 39.5336 47.9651C38.1132 48.1215 37.3716 45.6489 34.8953 42.6689C33.9524 41.5344 33.2293 40.5255 32.697 39.7602C31.9845 38.7357 32.4911 36.7494 32.9802 35.6475C33.3324 34.8543 33.9592 34.2326 34.5977 33.5531C35.3556 32.7467 36.0369 32.3685 36.7734 32.0347C37.4693 31.7194 38.2429 31.4797 39.0144 31.1679C39.9495 30.79 42.6421 30.51 44.0174 30.9311C44.6819 31.1345 45.0379 32.2301 45.614 32.8886C46.1551 33.507 46.7258 33.9656 47.2934 34.3689C47.8976 34.7981 48.9796 36.0574 49.9805 37.4781C50.7173 38.5239 51.1612 39.3352 51.5069 40.0431C51.85 40.7456 50.699 41.1997 50.4853 41.4868C49.9839 42.1604 50.9774 43.388 51.4973 44.1843C52.3257 45.4529 52.6206 46.1942 52.9736 46.6062C53.1247 46.7827 53.8365 47.0235 54 47C54.6863 46.9013 55 46.6062 55.5 46C56.1791 45.1767 56.9323 43.8917 57.2904 42.2875C57.5999 40.9007 57.3038 39.8317 57.2063 39.4632C56.9915 38.6507 55.8409 38.1859 55.3213 37.5044C55.1994 37.3379 55.0916 37.2055 54.831 36.8292C54.5705 36.4529 54.1606 35.8367 53.4636 35.0147" stroke="black" style="stroke:black;stroke-opacity:1;" stroke-linecap="round"/>
<path d="M12.5376 25.125C12.5376 25.8616 12.6096 27.8843 12.912 29.1291C13.1045 29.9218 13.1075 30.886 13.2215 31.7871C13.312 32.5021 13.4899 33.5499 13.8619 34.4416C14.4717 35.9035 15.1 36.3291 15.566 37.0463C15.7318 37.3014 16.3792 38.2089 17.3033 39.5352C17.6534 40.0377 17.8027 40.1651 18.6376 41.2695C19.4724 42.3739 20.9986 44.444 22.2338 46.0108C23.469 47.5775 24.367 48.578 24.8934 49.1427C26.1053 50.3336 27.1477 51.3379 27.5051 51.6551C27.6864 51.8328 27.8676 52.0446 28.0448 52.2661" stroke="black" style="stroke:black;stroke-opacity:1;" stroke-linecap="round"/>
<path d="M28.4922 52.6314C28.5492 52.6817 28.9839 53.0531 29.2964 53.3092C29.5003 53.4764 29.9944 54.0101 30.6402 54.6209C30.8873 54.8546 31.1607 55.0831 31.393 55.2862C31.7824 55.6267 32.0524 55.7772 32.6497 56.0769C33.4751 56.4911 34.3819 56.814 34.7716 56.9407C35.7457 57.2574 36.6331 57.2451 37.1482 57.2784C37.6092 57.3081 38.477 57.3363 38.9619 57.3603C39.5236 57.3882 40.0235 57.4099 40.7212 57.4037C41.1151 57.4002 41.4016 57.355 41.7862 57.3093C42.8781 57.1794 43.7404 56.714 44.0756 56.5236C44.3042 56.3938 44.5181 56.2658 44.6503 56.1785C44.7073 56.141 44.7173 56.0833 44.7334 55.5225C44.7495 54.9617 44.7645 53.8908 44.7661 53.0629C44.7677 52.2349 44.7555 51.6824 44.7005 51.1016" stroke="black" style="stroke:black;stroke-opacity:1;" stroke-linecap="round"/>
<path d="M42.8398 48.4149C43.2329 48.4147 44.3888 48.3384 44.7305 48.2554C44.9796 48.1948 45.5234 48.0005 45.8873 47.8728C46.3738 47.7021 47.1047 47.3991 47.5536 47.2009C48.0247 46.9929 48.4057 46.7391 48.5918 46.6093C48.7527 46.4971 48.9608 46.3339 49.196 46.1645C49.4106 46.01 49.583 45.8484 49.731 45.6934C49.942 45.4721 50.0501 45.211 50.2928 44.8794C50.4336 44.6948 50.5316 44.5619 50.5827 44.4807C50.6079 44.4388 50.6314 44.3953 50.7028 44.2803" stroke="black" style="stroke:black;stroke-opacity:1;" stroke-linecap="round"/>
<path d="M50.197 42.0283C50.1394 42.0693 49.6516 42.2728 49.3519 42.4196C48.9891 42.5973 49.3602 43.5029 49.4052 43.7427C49.4143 43.7945 49.4255 43.837 49.4787 43.9855C49.532 44.1341 49.627 44.3874 49.7369 44.6541" stroke="black" style="stroke:black;stroke-opacity:1;" stroke-linecap="round"/>
<path d="M19.0239 21.4365C19.0239 21.7248 19.0948 22.473 19.2506 22.7822C19.4035 23.0856 20.2524 24.0754 21.1768 25.1744C21.9736 26.1216 22.0933 26.4382 22.3093 26.7189C22.4091 26.8331 22.9048 27.4659 23.7852 28.5593C24.2188 29.0715 24.6254 29.4972 25.1418 30.047" stroke="black" style="stroke:black;stroke-opacity:1;" stroke-linecap="round"/>
<path d="M19.5259 21.0328C19.6009 21.0182 19.9349 20.8993 21.8258 19.5317C22.6018 18.9706 23.6666 18.3004 24.235 17.9249C25.0977 17.3551 26.2889 16.4465 26.9827 16.0242C27.173 15.879 27.4707 15.6805 27.9303 15.4209C28.1986 15.2741 28.538 15.0966 29.0199 14.8711" stroke="black" style="stroke:black;stroke-opacity:1;" stroke-linecap="round"/>
<path d="M25.9395 30.6156C25.9436 30.6156 26.0256 30.5818 26.4727 30.3206C27.5156 29.7113 28.4056 29.0392 29.09 28.5578C29.5189 28.256 30.1718 27.9247 31.0552 27.4577C31.9387 26.9907 33.0479 26.4203 33.8035 25.9758C34.9662 25.2919 35.5037 24.7233 35.8431 24.3901C36.3367 23.9932 36.8112 23.7117 37.0056 23.6208C37.0948 23.5773 37.1645 23.5392 37.2916 23.4834" stroke="black" style="stroke:black;stroke-opacity:1;" stroke-linecap="round"/>
<path d="M29.3481 14.7432C29.3925 14.8017 30.0345 15.5149 30.7664 16.3125C30.9221 16.4822 31.0911 16.6448 31.5483 17.1839C32.0054 17.7231 32.7479 18.6317 33.2486 19.2633C33.9997 20.2108 34.582 20.872 35.211 21.4443C35.9536 22.1199 36.1816 22.4997 36.4505 22.8429C36.5058 22.9108 36.5472 22.9683 36.5931 23.0247C36.639 23.0811 36.6883 23.1346 36.739 23.1897" stroke="black" style="stroke:black;stroke-opacity:1;" stroke-linecap="round"/>
<path d="M34.0923 41.5739C34.096 41.3382 34.3366 40.337 35.1019 39.1874C35.6835 38.3137 36.2791 37.8771 36.6241 37.5432C37.9511 36.2587 38.5194 36.1244 39.4712 35.7175C40.1921 35.4093 40.5551 35.2789 41.0829 35.1145C41.8299 34.8819 43.1497 35.104 43.7738 35.2263C44.3449 35.3381 44.7319 35.7051 45.104 35.9575C45.4885 36.2182 45.848 36.6656 46.394 37.7724C47.0552 39.1126 47.5644 40.1621 47.8521 40.5645C48.5679 41.3583 49.3182 42.0258 49.7511 42.3816C49.8459 42.4523 49.9581 42.5285 50.1142 42.6592" stroke="black" style="stroke:black;stroke-opacity:1;" stroke-linecap="round"/>
<path d="M21.5186 22.2876C21.5754 22.3961 22.0352 23.0108 22.5691 23.6646C22.6553 23.7702 22.7185 23.782 22.7845 23.7569C23.118 23.63 23.2879 23.2063 23.6417 22.7515C23.8857 22.4379 24.2332 22.2917 24.3462 22.0078C24.518 21.5767 23.6932 21.2436 23.421 20.9388C23.3586 20.869 23.2623 20.8883 23.1934 20.9017C23.0691 20.9416 22.8219 21.1335 22.4776 21.4617C22.3234 21.6253 22.2108 21.783 22.025 22.0457" stroke="black" style="stroke:black;stroke-opacity:1;" stroke-linecap="round"/>
<path d="M25.2026 27.0345C25.2016 27.1011 25.2808 27.3857 25.7663 28.0321C25.9038 28.2151 26.0563 28.3248 26.249 28.4254C26.5134 28.5634 26.8066 28.0666 27.0195 27.8065C27.2501 27.5248 27.5963 27.2638 27.8544 27.0942C27.9287 27.0454 28.0011 26.9781 28.0352 26.9047C28.0692 26.8312 28.0595 26.7491 28.0102 26.6541C27.7977 26.2444 27.4225 26.0858 27.1879 25.8868C27.118 25.8276 27.0731 25.7001 26.9945 25.6846C26.821 25.754 26.5396 26.0394 26.2029 26.3706C26.0497 26.5039 25.9327 26.5666 25.7559 26.6464" stroke="black" style="stroke:black;stroke-opacity:1;" stroke-linecap="round"/>
<path d="M32.0244 23.1859C32.1413 23.3532 32.5192 23.8466 32.7019 24.0828C32.7419 24.1345 32.7905 24.1835 32.8521 24.1877C33.4495 24.2275 33.9645 22.9945 34.1366 22.7656C34.3257 22.5142 33.5668 22.1023 33.2964 21.8887C33.0163 21.985 32.6674 22.3544 32.4547 22.6174C32.3714 22.7253 32.3379 22.7811 32.2767 22.8574" stroke="black" style="stroke:black;stroke-opacity:1;" stroke-linecap="round"/>
<path d="M25.0225 20.2077C25.0999 20.1864 25.3183 20.1838 25.4204 20.2227C25.4368 20.2289 25.3853 20.1746 25.3272 20.152C25.269 20.1293 25.2069 20.1315 25.1652 20.161C25.079 20.2218 25.0821 20.3692 25.098 20.4882C25.116 20.5433 25.1541 20.5875 25.2141 20.6103C25.2742 20.6331 25.3551 20.6331 25.4701 20.5521" stroke="black" style="stroke:black;stroke-opacity:1;" stroke-linecap="round"/>
<path d="M25.7944 20.9194C25.8452 20.9789 25.9818 21.1687 26.1059 21.2639C26.4608 21.5358 26.8189 20.8498 27.0177 20.523C27.0688 20.4389 27.1171 20.3733 27.1887 20.4336C27.3533 20.6819 27.6045 20.9992 27.8668 21.2334C27.9738 21.344 28.0277 21.4379 28.1008 21.5778" stroke="black" style="stroke:black;stroke-opacity:1;" stroke-linecap="round"/>
<path d="M26.9505 22.5146C26.9794 22.5694 27.136 22.8475 27.2114 23.0869C27.1698 23.142 27.0525 23.2043 26.9213 23.2832C26.7901 23.3621 26.6486 23.4558 26.4966 23.5649" stroke="black" style="stroke:black;stroke-opacity:1;" stroke-linecap="round"/>
<path d="M25.0931 23.375C25.0003 23.394 24.7917 23.4682 24.749 23.545C24.7502 23.5859 24.7977 23.6309 24.8433 23.6752C24.8888 23.7196 24.931 23.762 24.9877 23.8124" stroke="black" style="stroke:black;stroke-opacity:1;" stroke-linecap="round"/>
<path d="M23.3237 24.8701L23.4872 24.9329" stroke="black" style="stroke:black;stroke-opacity:1;" stroke-linecap="round"/>
<path d="M24.6006 25.9668C24.6024 25.9649 24.6043 25.963 24.6834 25.8672C24.7625 25.7714 24.9188 25.5818 25.1932 25.3252" stroke="black" style="stroke:black;stroke-opacity:1;" stroke-linecap="round"/>
<path d="M27.4375 24.4141C27.4983 24.4692 27.6556 24.6506 27.751 24.7619C27.8014 24.7924 27.8557 24.7702 27.9466 24.7112C28.0376 24.6521 28.1636 24.557 28.335 24.4408" stroke="black" style="stroke:black;stroke-opacity:1;" stroke-linecap="round"/>
<path d="M28.6602 23.2181C28.662 23.2181 28.6638 23.2181 28.6922 23.2096C28.7206 23.201 28.7755 23.1839 28.8349 23.1585C28.8942 23.1332 28.9563 23.1001 29.1626 22.9785" stroke="black" style="stroke:black;stroke-opacity:1;" stroke-linecap="round"/>
<path d="M29.3655 23.9756C29.3851 24.0372 29.5679 24.3548 29.76 24.7022C29.7945 24.7646 29.7498 24.8239 29.7101 24.8704C29.6704 24.9169 29.6164 24.9564 29.5214 25.0107C29.4263 25.0649 29.2917 25.1327 29.1074 25.2252" stroke="black" style="stroke:black;stroke-opacity:1;" stroke-linecap="round"/>
<path d="M29.3101 26.4941H29.3557" stroke="black" style="stroke:black;stroke-opacity:1;" stroke-linecap="round"/>
<path d="M30.1641 25.8723C30.304 25.7717 30.8828 25.365 31.3374 25.098C31.4211 25.0488 31.4833 25.0169 31.5118 24.9637C31.5404 24.9104 31.5348 24.8392 31.5096 24.7781C31.44 24.6681 31.3193 24.6035 31.1678 24.5731C31.0911 24.5569 31.0148 24.5393 30.8772 24.4893" stroke="black" style="stroke:black;stroke-opacity:1;" stroke-linecap="round"/>
<path d="M30.4129 23.071C30.4082 23.0663 30.4616 23.01 30.6265 22.867C30.7356 22.7779 30.8962 22.6552 31.0057 22.5801C31.1153 22.5051 31.1689 22.4814 31.2242 22.457" stroke="black" style="stroke:black;stroke-opacity:1;" stroke-linecap="round"/>
<path d="M30.1069 21.8063C30.1031 21.8063 30.0993 21.8063 30.0582 21.771C30.0171 21.7357 29.9388 21.6652 29.8301 21.5615" stroke="black" style="stroke:black;stroke-opacity:1;" stroke-linecap="round"/>
<path d="M29.9697 20.4721C30.0395 20.4249 30.257 20.2744 30.4248 20.2061C30.5763 20.2208 30.7301 20.335 30.9459 20.5319C31.081 20.6441 31.268 20.7813 31.4607 20.9227" stroke="black" style="stroke:black;stroke-opacity:1;" stroke-linecap="round"/>
<path d="M26.4727 19.2779L26.562 19.2275" stroke="black" style="stroke:black;stroke-opacity:1;" stroke-linecap="round"/>
<path d="M28.437 19.8366C28.4388 19.8328 28.4407 19.8289 28.4924 19.7981C28.5441 19.7673 28.6456 19.7096 28.7637 19.6101C28.8819 19.5105 29.0137 19.3709 29.167 19.2041" stroke="black" style="stroke:black;stroke-opacity:1;" stroke-linecap="round"/>
<path d="M27.736 18.3775C27.736 18.3812 27.673 18.422 27.6631 18.4336C27.8868 18.3117 28.1449 18.1849 28.3004 18.1231C28.3737 18.0906 28.4355 18.0561 28.4992 18.0205" stroke="black" style="stroke:black;stroke-opacity:1;" stroke-linecap="round"/>
<path d="M45.2314 52.1323C45.5321 52.1323 46.2774 52.0944 46.493 52.0303C46.6504 51.9835 46.9247 51.8992 47.4789 51.7189C47.7163 51.6417 47.9132 51.599 48.129 51.5444C48.6074 51.4236 48.8215 51.353 49.125 51.2452C49.3973 51.1485 49.8528 50.936 50.0546 50.8199C50.2272 50.7206 50.4016 50.6096 50.5665 50.492C50.7406 50.3678 50.8138 50.2459 50.9367 50.1112C51.1276 49.902 51.2469 49.7921 51.354 49.699C51.4775 49.5917 51.5645 49.4234 51.7426 49.1556C51.9446 48.8521 52.119 48.5712 52.1976 48.4016C52.2979 48.1271 52.4967 47.5378 52.5841 47.1491C52.6168 47.0033 52.6255 46.9623 52.6344 46.9199" stroke="black" style="stroke:black;stroke-opacity:1;" stroke-linecap="round"/>
<path d="M51.7852 49.3584C51.7852 49.4464 51.8601 49.8991 52.0478 50.5149C52.1293 50.7823 52.2589 50.978 52.4116 51.0859C52.5732 51.2001 52.8817 51.1021 53.1012 51.0147C53.4494 50.8761 54.0385 50.5641 54.2534 50.42C54.3774 50.3368 54.6809 50.1737 55.0395 49.9038C55.2241 49.7648 55.433 49.5958 55.6903 49.3549C55.9093 49.1498 56.0109 48.9794 56.2892 48.6255C56.5313 48.3176 56.7118 48.0717 56.8752 47.6816C57.1169 47.1048 57.2297 46.8807 57.4539 46.2741C57.6609 45.714 57.7066 45.3235 57.7209 45.2376C57.7685 44.9524 57.8517 44.6268 57.8976 43.9587C57.934 43.4289 57.9336 42.5085 57.9388 42.0196C57.9384 41.5003 57.8996 41.3816 57.8376 41.2354C57.8089 41.1765 57.7855 41.149 57.7288 41.1064" stroke="black" style="stroke:black;stroke-opacity:1;" stroke-linecap="round"/>
</svg>
