<svg width="64" height="64" viewBox="0 0 64 64" fill="none" xmlns="http://www.w3.org/2000/svg">
<rect width="64" height="64" fill="#FAFAFA" style="fill:#FAFAFA;fill:color(display-p3 0.9804 0.9804 0.9804);fill-opacity:1;"/>
<path d="M22.6529 6.76863C22.4806 6.78552 21.7725 7.03393 20.7761 7.9178C19.8508 8.73863 19.7767 12.0133 19.921 13.8041C20.0388 15.2667 20.5622 16.0994 20.6221 17.3271C20.6971 18.8637 20.5777 20.1669 20.1409 21.1799C19.3318 23.0563 18.3297 24.4283 17.3208 25.6285C16.5617 26.5315 15.2701 28.0052 14.3425 29.1341C13.415 30.2631 12.8827 30.996 12.3288 32.0725C11.775 33.1489 11.2157 34.5467 10.8201 35.8064C10.0959 38.113 9.98864 39.863 10.0009 40.8639C10.0137 41.9081 10.48 42.7876 11.3357 44.15C12.0764 45.3292 13.6748 46.1065 15.1103 46.6413C16.2615 47.0702 18.3183 47.6863 19.781 48.0757C21.2437 48.4651 22.0621 48.5752 23.0882 48.6226C24.1144 48.67 25.3235 48.6515 27.9768 47.9381C30.6302 47.2248 34.6911 45.8172 37.4589 44.7901C40.2267 43.7631 41.5783 43.1592 43.2962 42.2116C45.014 41.264 47.057 39.9911 48.1684 39.2873C49.7032 38.3153 51.2491 36.9942 52.2659 36.1328C53.1352 35.3963 54.9444 33.3855 55.95 31.6696C56.1642 31.3041 56.521 29.7884 56.9691 27.2692C57.3092 25.3578 56.9619 23.8768 56.5975 22.6375C55.9786 20.5327 54.4715 19.814 52.1889 18.7748C51.4511 18.4389 50.4039 18.2999 49.1832 18.1541C47.9626 18.0082 46.5626 17.9584 44.8687 17.9876C41.227 18.0505 39.0584 18.2026 38.5577 18.021C37.6918 17.7069 36.7397 17.0494 35.8561 16.3902C35.0403 15.7816 34.0959 14.3009 32.9709 12.5304C31.8203 10.7196 31.498 9.82445 31.0897 9.31921C30.6215 8.73995 29.6665 8.24127 28.7659 7.75573C28.1069 7.40047 26.8066 6.63513 25.8231 6.25434C25.0693 6.15961 24.3347 6.07372 23.8285 6.0187C23.5904 6 23.3903 6 23.1841 6" stroke="black" style="stroke:black;stroke-opacity:1;" stroke-linecap="round"/>
<path d="M19.6999 8.86816C19.5558 9.07111 19.0824 9.81417 18.6888 10.5491C18.1125 11.6254 17.5683 13.3569 17.2286 15.7828C16.8472 18.5064 17.2032 20.668 17.3003 21.4265C17.3527 23.0592 17.3278 24.5829 17.2217 24.9045C17.1481 25.0896 17.0343 25.3193 16.8096 25.8399" stroke="black" style="stroke:black;stroke-opacity:1;" stroke-linecap="round"/>
<path d="M12.0034 32.6555C12.0124 32.803 12.1751 33.3664 12.6504 33.9733C13.0827 34.5253 13.7188 34.8343 14.3408 35.0823C15.0929 35.3823 16.802 35.3083 18.6753 34.9803C19.6954 34.8017 21.1635 34.276 24.348 32.8068C26.5325 31.799 28.2702 31.0928 29.1867 30.8388C30.093 30.5877 32.9404 30.6824 34.9948 30.4449C36.9513 30.2187 37.6353 29.0832 38.1096 28.7143C38.5959 28.3361 38.9872 27.8858 39.7002 27.2013C40.1855 26.7355 41.4417 26.5623 42.2679 26.3666C42.9921 26.1951 45.4213 25.5607 46.9568 25.0774C47.8565 24.7942 48.9551 24.5349 49.5235 24.2574C50.4926 23.7843 51.7684 23.0792 52.474 22.2714C52.9631 21.4773 53.0905 20.577 53.0161 19.6064C52.9435 19.2518 52.8003 19.1773 52.6528 19.1006" stroke="black" style="stroke:black;stroke-opacity:1;" stroke-linecap="round"/>
<path d="M31.1734 47.1572C31.1725 47.6522 31.1513 48.7969 31.0479 49.2679C30.9989 49.4907 30.928 49.859 30.8763 50.6183C30.8246 51.3776 30.7955 52.517 30.7351 53.6312C30.6748 54.7455 30.5841 55.8001 30.5238 56.4514C30.4634 57.1027 30.4363 57.3188 30.4166 57.7707C30.397 58.2225 30.3857 58.9037 30.374 59.6054" stroke="black" style="stroke:black;stroke-opacity:1;" stroke-linecap="round"/>
<path d="M39.125 44.3916C39.125 44.8173 39.0822 45.8218 38.9897 46.2486C38.9369 46.4919 38.9348 47.3785 38.9128 48.5835C38.8961 49.4953 38.7755 51.0139 38.674 52.3234C38.6479 52.6603 38.6219 52.8815 38.5877 53.3553C38.51 54.4344 38.4956 55.3275 38.4593 56.1332C38.447 56.7603 38.447 57.8306 38.4431 58.4199C38.4392 59.0092 38.4314 59.0849 38.4233 59.3242" stroke="black" style="stroke:black;stroke-opacity:1;" stroke-linecap="round"/>
</svg>
