<svg width="64" height="64" viewBox="0 0 64 64" fill="none" xmlns="http://www.w3.org/2000/svg">
<rect width="64" height="64" fill="#FAFAFA" style="fill:#FAFAFA;fill:color(display-p3 0.9804 0.9804 0.9804);fill-opacity:1;"/>
<path d="M13.18 24.2656C13.1726 24.9253 13.133 26.5038 13.0069 27.3995C12.9203 28.0143 13.674 28.4896 14.0959 28.9427C14.5357 29.415 15.1704 29.5295 16.0638 29.9977C17.3082 30.6497 18.4172 30.8359 19.4541 31.1613C20.897 31.614 21.6129 31.7837 22.7918 32.086C23.697 32.318 24.608 32.6069 26.2503 32.911C27.8785 33.2125 28.6268 33.3397 29.9672 33.4671C30.7033 33.503 31.98 33.551 32.737 33.5824C33.4941 33.6139 33.6928 33.6274 33.9808 33.6628" stroke="black" style="stroke:black;stroke-opacity:1;" stroke-linecap="round"/>
<path d="M34.9937 33.5075C35.6644 33.5075 37.2967 33.4569 38.0513 33.364C39.0475 33.2413 39.6808 33.0649 40.2956 32.9553C40.9248 32.8432 42.0445 32.7171 43.3372 32.5282C44.5976 32.344 46.22 32.1088 47.3787 31.7871C48.2026 31.5585 48.885 31.2284 49.5402 30.8801C50.0767 30.5948 50.5205 30.1778 50.7603 29.7756C50.8396 28.9022 50.7804 28.3411 50.7684 27.5532C50.7609 26.9945 50.7506 26.1134 50.5274 24.9043" stroke="black" style="stroke:black;stroke-opacity:1;" stroke-linecap="round"/>
<path d="M14.2305 28.7988C14.3014 29.055 14.5813 29.9522 14.7528 30.816C14.9164 31.6397 14.978 32.5078 15.1017 33.4539C15.2842 34.8498 15.4289 35.8854 15.6287 37.181C15.8494 38.6119 16.123 40.3703 16.2831 41.325C16.4557 42.3542 16.5763 43.4044 16.6853 44.3648C16.8314 45.6525 17.4801 47.1372 17.7223 48.03C18.1262 49.7998 18.6715 52.2033 18.757 52.6375C18.8088 52.8686 18.8774 53.1216 19.0303 53.4455" stroke="black" style="stroke:black;stroke-opacity:1;" stroke-linecap="round"/>
<path d="M50.1508 31.1943C50.1508 32.0808 49.9681 34.9245 49.6393 36.681C49.3957 37.9831 49.3581 39.2698 49.2203 40.4553C48.8971 43.2372 48.6664 45.5438 48.42 48.0177C48.1804 49.9479 48.0966 50.768 47.9796 51.6841C47.9527 51.9971 47.9344 52.4211 47.9155 52.858" stroke="black" style="stroke:black;stroke-opacity:1;" stroke-linecap="round"/>
<path d="M19.2148 53.7981C19.4262 53.8487 20.2945 54.1213 21.1247 54.4518C22.1398 54.856 23.2659 55.247 24.1035 55.5563C25.1403 55.9391 26.0537 56.1981 27.7624 56.7555C29.9366 57.4648 31.6133 57.6503 32.8883 57.6942C38.2113 57.8772 39.6215 57.3261 40.9471 56.8846C42.617 56.3283 45.012 55.2268 46.1942 54.6832C46.7396 54.373 47.248 54.1303 47.6972 53.9209C47.908 53.7954 48.0837 53.6307 48.3626 52.998" stroke="black" style="stroke:black;stroke-opacity:1;" stroke-linecap="round"/>
<path d="M19.5562 40.376C19.7272 40.4867 20.3493 40.9322 20.9092 41.6206C21.9267 43.0914 22.2696 43.4957 22.5002 43.8029C22.6272 43.9785 22.7743 44.1938 23.1518 44.7741" stroke="black" style="stroke:black;stroke-opacity:1;" stroke-linecap="round"/>
<path d="M20.2935 39.7596C20.4974 39.4692 21.2119 38.7746 22.007 38.1444C22.7743 37.5362 23.8183 37.3568 24.7221 37.116C25.4615 36.9191 25.8655 38.0646 26.4222 39.0913C27.0593 40.2664 27.8129 41.4971 27.8794 41.7668C26.9711 42.595 25.2649 43.5649 24.1709 44.3609C23.9151 44.5694 23.7031 44.7498 23.4846 44.9356" stroke="black" style="stroke:black;stroke-opacity:1;" stroke-linecap="round"/>
<path d="M19.4604 39.66C19.5945 39.5434 20.4557 38.3312 20.8019 37.2937C20.8656 37.1027 20.8106 36.8538 20.8887 36.6933C21.1901 36.074 22.0994 35.9136 22.7527 35.4865C23.3188 35.1164 24.0964 35.1653 24.7618 35.2104C25.027 35.2283 25.1256 35.3798 25.1788 35.6407C25.2321 35.9015 25.2321 36.3037 25.2628 36.5831C25.2934 36.8625 25.3547 37.0069 25.4179 37.1556" stroke="black" style="stroke:black;stroke-opacity:1;" stroke-linecap="round"/>
<path d="M25.751 35.4531C25.9461 35.5427 26.7933 36.0264 27.4166 36.5238C28.0009 36.9901 28.4599 37.5158 28.7163 38.1316C28.6332 39.0728 28.3887 40.1416 28.2677 40.4914C28.2107 40.6923 28.1625 40.9407 27.912 41.5136" stroke="black" style="stroke:black;stroke-opacity:1;" stroke-linecap="round"/>
<path d="M26.6461 43.5791C26.6461 43.5894 26.6316 43.7871 26.5903 44.153C26.5634 44.3265 26.5244 44.4752 26.4384 44.7827C26.3524 45.0902 26.2204 45.552 26.0815 46.1177" stroke="black" style="stroke:black;stroke-opacity:1;" stroke-linecap="round"/>
<path d="M28.8735 40.7334C28.8636 40.7334 29.0317 40.7439 29.5353 40.8018C30.3477 40.9333 31.0088 41.0719 31.4083 41.1769C31.6435 41.2299 31.9445 41.2823 32.4865 41.4447" stroke="black" style="stroke:black;stroke-opacity:1;" stroke-linecap="round"/>
<path d="M28.834 39.4876C29.0618 39.4769 29.8658 39.3733 31.6088 38.5591C32.2299 38.2689 32.6059 38.1384 32.9083 38.1501C33.7922 38.1846 34.5335 39.0649 36.7275 40.013C37.1263 40.1853 36.9727 40.3705 36.8359 40.4959C36.2274 41.0537 35.3173 41.1732 34.6154 41.1106C34.3865 41.0942 34.0907 41.0942 33.8133 41.0784C33.5359 41.0626 33.2859 41.0309 32.7017 40.9983" stroke="black" style="stroke:black;stroke-opacity:1;" stroke-linecap="round"/>
<path d="M32.7682 41.542C32.5483 42.5949 31.8917 45.4955 31.4809 46.6959C31.3187 47.1701 30.9188 47.2222 30.2664 47.1269C28.6361 46.7496 27.4623 46.3812 27.135 46.2413C26.9743 46.1793 26.8244 46.1356 26.6172 46.0588" stroke="black" style="stroke:black;stroke-opacity:1;" stroke-linecap="round"/>
<path d="M31.7046 47.9423C31.9525 47.8723 33.4836 47.112 34.6026 46.3576C35.6935 45.6222 36.2042 45.3707 36.6267 45.1933C36.8095 45.1166 36.8476 44.9202 36.8552 44.7476C36.7207 44.0227 36.6149 42.9593 36.639 41.8408C36.6645 41.408 36.7169 41.2488 36.7709 40.6455" stroke="black" style="stroke:black;stroke-opacity:1;" stroke-linecap="round"/>
<path d="M37.8289 42.4217C38.0626 42.3641 39.1189 41.8573 40.2313 41.1864C40.6925 40.9083 41.1117 40.7903 41.5338 40.8296C42.0731 40.8799 42.5883 41.2261 43.0338 41.5144C43.4263 41.7684 43.6122 42.162 43.6781 42.5333C43.7874 43.1493 42.8418 44.2523 42.0198 45.0004C40.4165 45.3114 38.5679 45.4273 37.7222 45.4383C37.5628 45.4039 37.4214 45.3424 37.1895 45.0855" stroke="black" style="stroke:black;stroke-opacity:1;" stroke-linecap="round"/>
<path d="M36.7979 45.9615C36.8433 46.2251 37.2213 47.2755 37.6442 47.9852C37.984 48.5553 39.8604 48.4065 41.0112 48.3449C42.0378 48.2899 43.334 47.1172 44.2326 46.5027C44.6434 46.2218 45.0959 45.6538 45.4112 44.94C45.162 44.3196 44.7895 43.7117 44.6257 42.8173C44.524 42.4132 44.3846 42.11 44.1157 41.6299" stroke="black" style="stroke:black;stroke-opacity:1;" stroke-linecap="round"/>
<path d="M42.7109 44.4746C42.7109 44.4944 42.72 45.1483 42.7427 46.1999C42.7563 46.6077 42.7741 46.7602 42.8329 46.9089C42.8917 47.0577 42.991 47.1981 43.1766 47.5393" stroke="black" style="stroke:black;stroke-opacity:1;" stroke-linecap="round"/>
<path d="M21.1317 44.3828C21.0314 44.4825 20.6155 44.9745 20.0927 45.5252C19.7806 45.854 19.634 46.2426 19.6167 46.5043C19.5456 47.579 21.4774 48.2094 21.9068 48.4335C22.5453 48.7669 23.5756 47.3847 24.5694 46.6934C24.7553 46.5754 24.8832 46.4902 25.0174 46.3956C25.1515 46.3009 25.2879 46.1995 25.5736 46.0039" stroke="black" style="stroke:black;stroke-opacity:1;" stroke-linecap="round"/>
<path d="M22.5068 48.8444C22.9715 48.8152 24.2761 48.7391 24.9378 48.2626C25.2691 47.9739 25.5806 47.7425 25.8781 47.5573C26.0407 47.4613 26.227 47.3612 26.4483 47.2168" stroke="black" style="stroke:black;stroke-opacity:1;" stroke-linecap="round"/>
<path d="M29.9477 47.1648C29.9179 47.3284 29.3719 48.4118 28.5668 49.9584C28.2827 50.5042 28.1957 50.9449 28.1564 51.2784C28.1382 51.433 28.143 51.5597 28.2912 51.73C29.0876 52.6458 30.6979 52.8269 31.6053 52.9658C32.6412 53.1244 34.5101 53.3352 35.2381 53.2567C35.876 53.1878 36.1565 51.2053 36.9214 49.3502C37.0881 48.9457 37.1962 48.6296 37.1277 48.3532C36.3731 47.5455 35.7971 47.3052 35.3107 47.1233C35.081 47.0592 34.8863 47.0527 34.6858 47.0459" stroke="black" style="stroke:black;stroke-opacity:1;" stroke-linecap="round"/>
<path d="M36.1138 53.1853C36.4106 52.9923 37.1127 52.461 37.7175 52.0042C38.2543 51.5234 38.732 50.9605 38.9717 50.2741C38.9919 50.0304 38.9919 49.6653 38.9919 49.2891" stroke="black" style="stroke:black;stroke-opacity:1;" stroke-linecap="round"/>
<path d="M43.7661 40.6079C43.9346 40.4983 44.6539 39.9569 45.2316 39.5946C45.6847 39.3103 46.1484 38.535 46.6854 37.9893C47.2451 37.6949 47.6492 37.5187 47.9257 37.3636C48.0677 37.2894 48.2134 37.2244 48.5178 37.0908" stroke="black" style="stroke:black;stroke-opacity:1;" stroke-linecap="round"/>
<path d="M49.423 36.5352C49.3607 36.4102 48.7641 35.9041 48.193 35.5798C48.0821 35.5168 48.0035 35.4037 47.8885 35.3443C47.2774 35.0292 45.95 35.9251 45.285 36.285C44.7125 36.5949 44.0185 37.1712 43.4009 37.5226C42.9254 37.7931 42.6306 38.0498 42.4722 38.2211C42.3938 38.306 42.4179 38.4563 42.4656 38.5724C42.8049 38.9917 43.1797 39.4148 43.5094 39.7512C43.662 39.8879 43.7849 39.9557 44.0902 40.1663" stroke="black" style="stroke:black;stroke-opacity:1;" stroke-linecap="round"/>
<path d="M35 34.9502C35.0271 35.0181 35.1714 35.3018 35.3875 36.1197C35.5962 36.9096 35.816 37.5088 36.2308 38.3824C36.3825 38.7418 36.4822 38.9801 36.5451 39.1178C36.5687 39.1871 36.5756 39.2549 36.6774 39.4573" stroke="black" style="stroke:black;stroke-opacity:1;" stroke-linecap="round"/>
<path d="M38.6558 34C38.6558 34.0756 38.7333 34.3478 38.9095 34.6246C39.0851 34.9006 39.2974 35.5223 39.5263 36.0601C39.742 36.567 40.0041 37.2696 40.3472 37.9838C40.6565 38.5344 40.9043 39.0204 40.9976 39.212C41.0408 39.2959 41.0757 39.3525 41.2152 39.5069" stroke="black" style="stroke:black;stroke-opacity:1;" stroke-linecap="round"/>
<path d="M42.1543 38.4675C42.1543 38.4626 42.1543 38.4578 42.1657 38.5183C42.177 38.5788 42.1998 38.7048 42.2127 38.8546C42.2256 39.0045 42.228 39.1745 42.3 39.4259" stroke="black" style="stroke:black;stroke-opacity:1;" stroke-linecap="round"/>
<path d="M46.0986 43.7124C46.2562 43.6225 46.8557 43.2338 47.3561 42.862C47.595 42.7066 47.9577 42.4403 48.3702 42.1177C48.5454 41.9848 48.6509 41.9148 48.884 41.6572" stroke="black" style="stroke:black;stroke-opacity:1;" stroke-linecap="round"/>
<path d="M16.1812 37.2344C16.3105 37.2519 16.7484 37.3428 17.2259 37.4572C17.4794 37.535 17.8951 37.6472 18.3848 37.7603C18.5892 37.8054 18.7041 37.8259 19.0142 37.8469" stroke="black" style="stroke:black;stroke-opacity:1;" stroke-linecap="round"/>
<path d="M37.0088 39.3187C37.0121 39.3187 37.0154 39.3187 37.184 39.3187C37.3525 39.3187 37.6863 39.3187 38.3353 39.3149C38.9842 39.3111 39.9382 39.3036 40.9211 39.2959" stroke="black" style="stroke:black;stroke-opacity:1;" stroke-linecap="round"/>
<path d="M16.1104 36.4029C16.2253 36.2611 16.6124 35.8537 16.9974 35.5058C17.3458 35.191 17.9882 34.9397 19.0307 34.4793C19.6293 34.215 20.4911 34.0307 21.1857 33.8226C21.6039 33.7053 22.0961 33.5989 22.5772 33.54C22.8173 33.5165 23.0492 33.5058 23.4195 33.4629" stroke="black" style="stroke:black;stroke-opacity:1;" stroke-linecap="round"/>
<path d="M43.4082 33.0537C44.4285 33.0537 46.762 33.1241 47.8388 33.5339C48.1133 33.6507 48.3262 33.7522 48.515 33.866C48.7039 33.9799 48.8621 34.1031 49.0759 34.2788" stroke="black" style="stroke:black;stroke-opacity:1;" stroke-linecap="round"/>
<path d="M27.6973 9.88867C27.7157 10.0562 28.0479 11.0574 28.6021 12.7801C28.9668 13.9137 29.1766 15.5692 29.6871 17.0597C30.4985 19.4291 30.758 20.0899 31.0861 21.9231C31.1975 22.4655 31.3423 22.9875 31.5147 23.4605C31.687 23.9335 31.8826 24.3417 32.2139 24.9676" stroke="black" style="stroke:black;stroke-opacity:1;" stroke-linecap="round"/>
<path d="M30.1523 9.01855C30.2473 9.18487 30.5782 9.88242 30.771 10.5129C31.0181 11.3207 31.5988 12.6723 32.071 14.0199C32.3127 14.7099 32.7621 16.2752 33.5289 18.3682C34.1984 20.1957 34.5848 21.1765 34.9731 22.1152C35.2442 22.9893 35.4478 23.6759 35.5387 23.9336C35.5895 24.0636 35.6498 24.1918 35.756 24.5513" stroke="black" style="stroke:black;stroke-opacity:1;" stroke-linecap="round"/>
<path d="M27.5547 9.48911C27.4616 9.35762 27.2149 9.03542 27.0562 8.88997C26.9058 8.75209 26.6138 8.67758 26.3445 8.5939C26.1473 8.54038 25.9413 8.49561 25.7462 8.47215C25.6394 8.46414 25.5167 8.46403 25.3662 8.47935" stroke="black" style="stroke:black;stroke-opacity:1;" stroke-linecap="round"/>
<path d="M25.2124 6.12833C25.3081 6.10436 25.6348 6.01262 26.4416 6.00033C27.0029 5.99177 27.2809 6.15314 27.5469 6.24142C27.7603 6.31226 27.9823 6.45954 28.6668 6.97634C28.8791 7.15786 29.0717 7.38063 29.3148 7.68205C29.4255 7.81909 29.5105 7.92384 29.651 8.1158" stroke="black" style="stroke:black;stroke-opacity:1;" stroke-linecap="round"/>
<path d="M25.8291 6.56641C25.8291 6.98458 25.8601 7.87668 25.9397 7.95356C26.3057 8.30731 26.9236 7.04444 27.1385 6.8407C27.1944 6.78771 27.1948 7.44629 27.2653 8.13333C27.3376 8.83897 28.4067 7.55882 28.59 7.45804C28.6697 7.41424 28.7283 7.39668 28.6532 7.59556C28.228 8.72272 27.966 8.87757 27.8718 9.09263C27.8511 9.13992 27.859 9.19541 27.9128 9.22332C28.0766 9.25324 28.5177 9.16466 29.0491 9.01276C29.2528 8.95149 29.3222 8.92231 29.5027 8.83186" stroke="black" style="stroke:black;stroke-opacity:1;" stroke-linecap="round"/>
<path d="M24.7935 6.17285C24.567 6.17421 23.8838 6.21577 23.0168 6.25095C22.5042 6.27175 22.2719 6.36292 20.9339 6.40202C20.2411 6.42227 19.6443 6.51559 19.1451 6.57222C18.9229 6.59743 18.9352 6.99322 18.8981 7.80357C18.879 8.22086 19.1126 8.44236 19.3047 8.62472C19.4774 8.78876 19.6784 8.86211 19.7915 8.89281C20.0007 8.94959 20.2479 8.86046 20.6006 8.79469C21.0795 8.70543 21.5236 8.74146 21.8891 8.71922C22.8705 8.6731 23.6703 8.5916 23.8735 8.58639C24.0186 8.58376 24.2489 8.58118 24.4862 8.57851" stroke="black" style="stroke:black;stroke-opacity:1;" stroke-linecap="round"/>
<path d="M13.4399 23.5869C13.5117 23.6536 13.7829 23.8463 14.0401 24.011C14.1871 24.1052 14.3651 24.2418 14.7975 24.5355C15.6618 25.1224 16.7205 25.6351 17.4382 25.9782C17.9127 26.2049 18.2166 26.3621 20.053 26.8454C21.0715 27.1135 22.5661 27.5804 23.5166 27.807C24.4471 28.0289 25.632 28.4819 26.5958 28.6947C27.4709 28.888 28.5902 29.1347 29.4959 29.2936C30.0949 29.3988 31.2748 29.5054 31.9823 29.5484C32.3791 29.5726 32.7873 29.5871 33.2526 29.6119C34.0401 29.6539 34.8117 29.7512 36.3228 29.7438C38.0879 29.7351 38.4307 29.3432 38.8165 29.2649C39.4693 29.1323 39.974 28.9969 40.3977 28.8809C41.3524 28.5722 42.9396 28.0352 43.1783 27.9772C43.315 27.9465 43.4834 27.913 43.5439 27.8785" stroke="black" style="stroke:black;stroke-opacity:1;" stroke-linecap="round"/>
<path d="M43.9561 27.6774C44.0546 27.6604 44.3997 27.5834 45.0843 27.3781C45.4715 27.262 46.077 27.1405 46.7011 27.0113C47.075 26.9339 47.3694 26.8247 47.6977 26.6394C48.0291 26.4522 48.422 26.1854 49.0606 25.7817C49.4177 25.556 49.6617 25.2464 49.8158 24.9877C49.8448 24.9148 49.8647 24.8355 49.8846 24.7584C49.9046 24.6813 49.9239 24.6089 49.9439 24.5342" stroke="black" style="stroke:black;stroke-opacity:1;" stroke-linecap="round"/>
<path d="M13.2954 23.1115C13.2954 23.0085 13.3507 22.6747 13.556 22.3954C13.7797 22.0912 14.15 21.8274 14.4483 21.6295C14.7386 21.4369 15.1427 21.2151 15.6651 21.0482C16.2876 20.8494 16.5948 20.7461 17.1984 20.5182C17.8042 20.2896 18.7905 20.2283 19.2773 20.1302C20.2734 19.9296 21.2871 19.684 21.9632 19.56C22.275 19.5029 22.67 19.365 23.018 19.2336C23.3594 19.1047 24.101 18.9928 25.3647 18.9326C26.3147 18.8873 26.7119 18.7966 27.1775 18.7467C27.3957 18.7303 27.7033 18.7201 28.1237 18.7088C28.3389 18.7024 28.5579 18.6949 28.8682 18.7745" stroke="black" style="stroke:black;stroke-opacity:1;" stroke-linecap="round"/>
<path d="M34.8789 17.8852C35.0445 17.8852 35.5301 17.905 37.2325 17.9043C38.023 17.904 38.3163 17.842 40.3957 17.8748C41.231 17.8879 41.606 18.0592 42.0257 18.1932C43.712 18.7315 44.1 18.8592 44.6166 18.9437C45.2162 19.0417 46.285 19.4767 46.9766 19.7578C47.2733 19.8783 48.1146 20.4095 48.7642 20.9248C49.073 21.1697 49.3193 21.5055 49.553 21.759C49.7942 22.0206 49.864 22.4668 49.9231 22.7942C49.9571 22.9443 49.9854 23.1742 49.984 23.4495C49.9751 23.5716 49.9497 23.6579 49.9236 23.7467" stroke="black" style="stroke:black;stroke-opacity:1;" stroke-linecap="round"/>
</svg>
