<svg width="64" height="65" viewBox="0 0 64 65" fill="none" xmlns="http://www.w3.org/2000/svg">
<rect width="64" height="64" fill="#FAFAFA" style="fill:#FAFAFA;fill:color(display-p3 0.9804 0.9804 0.9804);fill-opacity:1;"/>
<path d="M10.5625 32.8032C10.5708 32.2181 11.8319 26.9573 12.7945 24.2529C13.2784 22.8933 14.4615 21.3195 15.1091 20.4858C15.9621 19.3878 17.4842 18.1198 18.185 17.5906C19.4033 16.6706 21.6072 15.4426 24.2047 14.5197C26.3828 13.7459 28.9881 13.7217 31.0858 13.83C33.9116 13.9759 36.084 15.932 37.4734 17.4655C40.3095 20.5956 40.4045 21.5187 41.1025 22.8019C41.8039 24.0911 42.0677 25.9519 42.5265 31.1366C42.7791 33.9908 42.8553 38.8002 43.0895 42.5004C43.3237 46.2006 43.6017 48.6536 43.8006 50.137C43.9996 51.6204 44.111 52.0599 44.3107 53.0417" stroke="black" style="stroke:black;stroke-opacity:1;" stroke-linecap="round"/>
<path d="M10.7593 33.3341C10.8406 33.4714 11.3213 34.0248 12.0316 34.4951C12.7081 34.9431 13.5767 34.6809 14.3241 34.6246C14.6066 34.6034 14.6684 34.4328 14.7084 34.2335C14.8811 33.3752 14.924 32.7231 15.2307 31.7407C15.5146 30.8315 15.706 29.8997 15.9927 28.9546C16.7238 26.5451 16.9294 25.9061 17.1488 25.3895C17.3963 24.8068 17.6136 24.2677 17.859 23.7921C18.1233 23.2799 18.5188 22.5564 19.1075 21.595C19.7085 20.6135 20.6064 19.6678 21.2024 19.0414C22.2134 17.9788 23.5144 16.7418 24.4211 16.1715C25.128 15.7123 25.816 15.3163 26.355 15.1204C26.6171 15.0486 26.8559 15.0328 27.102 15.0166" stroke="black" style="stroke:black;stroke-opacity:1;" stroke-linecap="round"/>
<path d="M44.7598 53.2006C44.9085 53.2264 45.5308 53.4312 46.1145 53.6099C47.3187 53.9786 49.5399 53.5659 50.1454 53.2384C50.356 53.0399 50.4819 52.8001 50.5292 52.5408C50.5455 52.4108 50.5463 52.284 50.5471 52.1533" stroke="black" style="stroke:black;stroke-opacity:1;" stroke-linecap="round"/>
<path d="M46.1013 41.973C46.1013 41.1322 46.0667 39.1186 46.0321 37.99C45.973 36.0654 46.0828 34.6339 46.3618 34.3356C46.8522 33.8115 47.3802 33.6495 48.4057 33.3668C49.3905 33.0952 50.5674 33.3987 51.1787 33.8823C51.6648 34.2668 51.5713 35.87 51.6551 37.4817C51.7684 39.6615 51.8826 41.3274 51.8309 41.6948C51.8082 41.8562 51.6321 41.923 51.4935 41.963C50.4238 42.0154 48.7637 42.0744 47.4643 42.1044C47.1783 42.1168 47.0401 42.1418 46.7458 42.1981" stroke="black" style="stroke:black;stroke-opacity:1;" stroke-linecap="round"/>
<path d="M44.5352 30.5928C44.566 30.7651 44.8681 31.5425 45.2447 32.3998C45.4747 32.8901 45.6943 33.2744 45.8862 33.5414C45.9898 33.6934 46.1061 33.8788 46.226 34.0698" stroke="black" style="stroke:black;stroke-opacity:1;" stroke-linecap="round"/>
<path d="M47.7651 28.8789C47.8625 29.0278 48.1755 29.551 48.7281 30.3153C49.4282 31.2526 50.2375 32.0619 51.1385 33.1611C51.2727 33.3784 51.3126 33.5235 51.3537 33.673" stroke="black" style="stroke:black;stroke-opacity:1;" stroke-linecap="round"/>
<path d="M46.7613 36.4834C46.758 36.4382 46.928 36.0887 47.3969 35.5355C47.7146 35.2263 48.0999 34.803 48.3212 34.5364C48.4089 34.4329 48.4467 34.394 48.4969 34.3369" stroke="black" style="stroke:black;stroke-opacity:1;" stroke-linecap="round"/>
<path d="M46.6494 38.8677C46.6828 38.8062 46.8845 38.5493 47.1334 38.2569C47.3105 38.049 47.5393 37.8225 47.7524 37.5788C47.96 37.3413 48.2452 37.0951 48.7569 36.6029C49.1196 36.2668 49.6916 35.7557 50.0051 35.4762C50.3187 35.1967 50.3565 35.1644 50.3972 35.125" stroke="black" style="stroke:black;stroke-opacity:1;" stroke-linecap="round"/>
<path d="M46.8584 41.1556C46.9713 41.0447 47.4149 40.6664 48.069 40.1369C48.515 39.7759 49.1671 39.1963 49.5465 38.8715C50.2262 38.2866 50.575 37.9283 50.7877 37.7364C50.8528 37.6846 50.9255 37.6322 51.0005 37.5781" stroke="black" style="stroke:black;stroke-opacity:1;" stroke-linecap="round"/>
<path d="M49.2949 41.5918C49.384 41.5031 50.0534 40.8697 50.6299 40.3889C50.7051 40.3287 50.7464 40.289 50.8068 40.2205C50.8673 40.152 50.9457 40.0559 51.0824 39.8965" stroke="black" style="stroke:black;stroke-opacity:1;" stroke-linecap="round"/>
<path d="M48.3618 34.2707C48.3618 34.2615 48.4055 34.2711 48.7619 34.5169C49.0747 34.7485 49.6551 35.1971 50.0561 35.5509C50.4572 35.9048 50.6612 36.1504 50.9128 36.4411" stroke="black" style="stroke:black;stroke-opacity:1;" stroke-linecap="round"/>
<path d="M46.7017 35.1152C46.7703 35.1545 47.2227 35.5596 47.7896 36.1288C48.1886 36.5294 48.5385 36.8832 48.9332 37.2815C49.349 37.7011 49.7544 38.0152 50.0627 38.338C50.2365 38.5109 50.4452 38.7023 50.5978 38.8491C50.7504 38.996 50.8405 39.0924 50.9531 39.2112" stroke="black" style="stroke:black;stroke-opacity:1;" stroke-linecap="round"/>
<path d="M46.6035 37.6553C46.8077 37.8398 47.406 38.3887 47.9867 38.9089C48.3028 39.1921 48.8348 39.6944 49.1562 39.9853C49.5692 40.3438 49.8683 40.6797 50.2298 41.131C50.3865 41.3161 50.4888 41.4121 50.5941 41.511" stroke="black" style="stroke:black;stroke-opacity:1;" stroke-linecap="round"/>
<path d="M47.8998 41.5906C47.8497 41.569 47.713 41.4489 47.5263 41.2224C47.2853 40.9497 47.0926 40.7436 47.0139 40.6781C46.9733 40.6459 46.9311 40.6159 46.8877 40.585" stroke="black" style="stroke:black;stroke-opacity:1;" stroke-linecap="round"/>
<path d="M18 17.0325C18.1465 16.9327 18.6698 16.5278 19.3219 15.8592C19.8951 15.2714 20.6905 14.6917 21.6311 14.0759C22.3841 13.5828 23.0743 13.5014 24.1629 13.0321C24.8817 12.7222 25.5633 12.4018 26.4563 11.9697C27.6889 11.3731 28.4501 11.3069 29.184 11.1624C29.9557 11.0103 32.0114 10.9381 33.647 11.0657C34.9964 11.171 35.9352 11.5535 37.3252 11.9572C38.4104 12.2723 40.2002 13.0649 41.2161 13.5476C41.9867 13.9138 43.1143 14.705 44.0869 15.6526C44.6531 16.2044 44.9451 16.8229 45.3259 17.4237C45.8323 18.2225 46.1964 18.9009 46.7544 19.9194C47.5903 21.445 48.3754 23.1824 49.1462 25.0695C49.8088 27.3628 49.846 28.0601 49.9085 28.6771C49.9486 29.1228 50.0053 29.8377 49.9996 31" stroke="black" style="stroke:black;stroke-opacity:1;" stroke-linecap="round"/>
<path d="M44.3447 53.525C44.3934 53.7395 44.6061 54.4499 44.9046 55.1583C45.2191 55.9047 45.4793 56.5308 45.9502 57.0383C46.6402 57.7818 47.4926 57.7445 48.6159 57.8585C50.3517 58.0347 51.645 57.2364 52.681 56.4612C52.8787 56.3133 52.9729 56.1706 53.0756 56.0367C53.1784 55.9027 53.2687 55.7602 53.1713 55.5232C52.6617 54.2822 51.816 53.7842 51.4675 53.212C51.3985 53.0756 51.3391 52.9321 51.2103 52.8209C51.0815 52.7098 50.885 52.6353 50.6825 52.5586" stroke="black" style="stroke:black;stroke-opacity:1;" stroke-linecap="round"/>
<path d="M41.2729 24.8203C41.2116 25.5415 41.0373 27.3443 40.7313 28.303C40.3414 29.5248 39.2527 30.3286 37.3777 31.9368C36.0054 33.1139 35.2002 33.9752 34.194 35.049C32.7472 36.5931 31.2587 37.9963 30.1952 39.1208C28.8797 40.5117 27.9291 41.3311 27.6354 41.474C26.9342 41.8151 25.794 40.8726 24.6505 40.1005C23.6909 39.4526 20.9287 38.2148 18.9924 37.1337C17.5929 36.3525 16.5659 36.1626 15.807 35.9045C15.6119 35.8179 15.4023 35.693 15.2093 35.5647C15.0163 35.4365 14.8462 35.3088 14.6709 35.1773" stroke="black" style="stroke:black;stroke-opacity:1;" stroke-linecap="round"/>
<path d="M12.8828 36.8078C13.3076 37.0101 14.9951 37.7847 16.1814 38.4526C18.0782 39.5206 20.0981 40.5779 20.9604 41.1585C21.7649 41.7002 23.6054 42.4974 24.8967 43.0265C26.2351 43.5749 27.0044 43.756 28.3842 43.7757C29.3725 43.7898 29.8479 42.7236 30.4529 42.1978C31.1448 41.5966 32.6524 40.4358 33.8313 39.6225C35.3889 38.548 36.1846 38.0148 36.8395 37.5022C37.4468 37.0268 38.0731 36.5427 38.7895 36.0528C39.1245 35.8237 39.4703 35.6609 39.8534 35.6058C40.6157 35.496 41.2311 36.2255 41.7009 36.8464C42.0767 37.6038 42.38 38.7771 42.8281 41.1701C42.9529 41.8075 43.0833 42.386 43.2177 43.2937" stroke="black" style="stroke:black;stroke-opacity:1;" stroke-linecap="round"/>
<path d="M50.6807 52.0058C50.6807 52.0037 50.6807 51.5633 50.6796 50.577C50.6789 50.03 50.6761 49.3884 50.6794 49.0219C50.6827 48.6553 50.6918 48.5833 50.6962 48.0324C50.7007 47.4815 50.7002 46.4539 50.6966 45.9067C50.6929 45.3596 50.686 45.324 50.6816 44.8912C50.6772 44.4584 50.6755 43.6295 50.6704 42.7666" stroke="black" style="stroke:black;stroke-opacity:1;" stroke-linecap="round"/>
<path d="M27.1082 42.0268C27.1033 42.0268 27.046 42.0388 26.9454 42.0758C26.8493 42.1111 26.8007 42.2205 26.754 42.319C26.7012 42.4303 26.7121 42.5888 26.7248 42.7435C26.7449 42.9891 27.0812 43.1677 27.3769 43.2748C27.7555 43.4119 28.2288 43.2467 28.5103 43.0717C28.9539 42.7958 28.7774 41.9174 28.713 41.823C28.555 41.5915 28.2415 41.577 27.844 41.5858C27.4879 41.6371 27.2461 41.7138 27.1771 41.8218C27.139 41.8885 27.0943 41.9793 27.0482 42.0729" stroke="black" style="stroke:black;stroke-opacity:1;" stroke-linecap="round"/>
<path d="M15.6934 35.193C15.7344 34.7781 15.8817 33.4616 16.8528 30.3306C17.624 27.8441 18.3811 26.8212 19.1924 25.2711C19.9633 23.7981 20.7794 22.1665 21.2987 21.4798C21.7906 20.8293 22.4685 20.2302 23.1613 19.5823C23.9622 18.8335 25.5078 18.111 26.6694 17.7694C27.4772 17.532 28.303 17.5521 29.1796 17.4378C30.3616 17.2837 31.7898 17.2807 33.6344 17.8515C35.3067 18.369 35.8279 19.1526 36.8359 20.5128C37.6148 21.5639 38.0135 23.9407 38.3515 26.1122C38.4923 27.1318 38.7106 28.3341 38.8087 29.3613C38.8411 29.7711 38.8384 29.9546 38.8356 30.1436" stroke="#EEEEEE" style="stroke:#EEEEEE;stroke:color(display-p3 0.9342 0.9342 0.9342);stroke-opacity:1;" stroke-linecap="round"/>
<path d="M15.9345 39.4746C15.9345 39.7506 15.8663 40.7233 15.725 42.9825C15.6162 44.7227 15.6465 48.0467 15.6593 49.9787C15.6801 53.1157 15.9957 54.1426 16.1991 55.1287C16.4266 56.2321 16.7266 57.4787 17.4915 59.7648C18.1747 61.4929 18.8311 62.8645 19.2776 63.5514C19.4649 63.8288 19.5723 63.9618 19.6829 64.0989" stroke="#EEEEEE" style="stroke:#EEEEEE;stroke:color(display-p3 0.9342 0.9342 0.9342);stroke-opacity:1;" stroke-linecap="round"/>
<path d="M42 39C42 39.0103 42 39.0207 41.9737 41.1234C41.9473 43.2262 41.8946 47.421 41.8443 49.7826C41.7854 52.547 41.6791 53.1415 41.5664 53.8371C41.0695 56.9039 40.1371 59.2011 39.81 60.1712C39.0727 61.7181 38.3447 62.76 37.7114 63.3431C37.5083 63.5263 37.2579 63.7596 37 64" stroke="#EEEEEE" style="stroke:#EEEEEE;stroke:color(display-p3 0.9342 0.9342 0.9342);stroke-opacity:1;" stroke-linecap="round"/>
<path d="M23.2642 38.2282C23.3307 38.056 23.6333 37.3744 24.0425 36.7338C24.4223 36.1392 25.3394 35.7544 26.7592 35.3183C27.6634 35.0406 28.3379 35.2834 28.6247 35.4621C29.3885 36.1455 29.7567 36.9252 29.8598 37.5929C29.8681 37.7731 29.8681 37.9992 29.8681 38.2321" stroke="#EEEEEE" style="stroke:#EEEEEE;stroke:color(display-p3 0.9342 0.9342 0.9342);stroke-opacity:1;" stroke-linecap="round"/>
<path d="M22.9102 42.9875C22.9102 43.7432 23.0533 45.6062 23.3826 46.165C23.7918 46.8593 24.5912 47.0928 25.572 47.3493C26.5414 47.6029 27.8068 47.3039 28.8413 46.6642C29.8619 45.7336 30.1455 45.0341 30.428 43.6641C30.4855 43.3707 30.5169 43.2309 30.5492 42.9072" stroke="#EEEEEE" style="stroke:#EEEEEE;stroke:color(display-p3 0.9342 0.9342 0.9342);stroke-opacity:1;" stroke-linecap="round"/>
<path d="M24 36C23.994 36 23.5705 36 22.6222 36C21.4713 36 20.6778 36 20.2219 36C19.9177 36 19.4657 36 19 36" stroke="#EEEEEE" style="stroke:#EEEEEE;stroke:color(display-p3 0.9342 0.9342 0.9342);stroke-opacity:1;" stroke-linecap="round"/>
<path d="M22 44C22 44.007 21.9516 44.1445 21.5411 44.9045C20.5673 46.7078 19.5311 48.1825 18.9931 49.0166C18.7344 49.4611 18.5048 49.9487 18.3548 50.2699C18.2048 50.591 18.1415 50.7309 18 51" stroke="#EEEEEE" style="stroke:#EEEEEE;stroke:color(display-p3 0.9342 0.9342 0.9342);stroke-opacity:1;" stroke-linecap="round"/>
<path d="M23.751 47.3701C23.751 47.3779 23.7641 48.1156 24.298 51.1414C24.7064 53.4561 25.847 57.2616 26.3916 59.3317C27.0419 61.9605 27.1546 62.435 27.2202 62.7592C27.2647 62.9347 27.3317 63.1327 27.4008 63.5192" stroke="#EEEEEE" style="stroke:#EEEEEE;stroke:color(display-p3 0.9342 0.9342 0.9342);stroke-opacity:1;" stroke-linecap="round"/>
<path d="M26.8862 47.3848C27.129 47.4063 28.3874 47.8498 30.301 48.7687C31.4572 49.3238 33.0566 49.9134 34.4194 50.4787C36.8768 51.53 38.4045 52.1705 39.1251 52.4046C39.446 52.4987 39.676 52.5428 40.2081 52.7004" stroke="#EEEEEE" style="stroke:#EEEEEE;stroke:color(display-p3 0.9342 0.9342 0.9342);stroke-opacity:1;" stroke-linecap="round"/>
<path d="M30.3838 44.2201C30.5142 44.091 30.989 43.6607 32.2825 42.7345C33.1688 42.0998 33.7499 41.7406 34.233 41.4936C35.5152 40.7572 38.1263 39.1484 39.3143 38.4676C39.5794 38.3294 39.8688 38.2063 40.4446 37.9658" stroke="#EEEEEE" style="stroke:#EEEEEE;stroke:color(display-p3 0.9342 0.9342 0.9342);stroke-opacity:1;" stroke-linecap="round"/>
<path d="M23 47C23 47.0074 23 47.5696 22.7545 49.6816C22.572 51.2516 22.018 53.767 21.6818 55.9029C21.3456 58.0388 21.179 59.7021 21.0932 60.649C21.0074 61.5959 21.0074 61.7759 21 62" stroke="#EEEEEE" style="stroke:#EEEEEE;stroke:color(display-p3 0.9342 0.9342 0.9342);stroke-opacity:1;" stroke-linecap="round"/>
<path d="M26.3857 48.5713C26.4218 48.7361 26.6336 49.2629 27.5124 50.2508C28.747 51.6389 29.6448 52.9105 30.2499 53.5172C31.0279 54.2973 31.9422 55.3639 32.9732 56.4767C34.5935 58.4104 35.2271 59.1945 35.4898 59.5485C35.6294 59.721 35.7818 59.879 35.9388 60.0418" stroke="#EEEEEE" style="stroke:#EEEEEE;stroke:color(display-p3 0.9342 0.9342 0.9342);stroke-opacity:1;" stroke-linecap="round"/>
<path d="M30.7158 46.1947C31.4603 46.1836 34.1797 46.0123 36.6906 45.7538C37.9209 45.6439 39.0622 45.5773 39.7371 45.5222C40.4121 45.467 40.5861 45.4253 40.8898 45.3584" stroke="#EEEEEE" style="stroke:#EEEEEE;stroke:color(display-p3 0.9342 0.9342 0.9342);stroke-opacity:1;" stroke-linecap="round"/>
<path d="M28 35C27.9008 34.948 27.5379 34.6409 27.1496 34.3625C26.6042 33.9714 25.8866 33.7779 25.3828 33.4784C24.5759 32.9986 22.9748 31.8717 21.7057 31.1452C21.0358 30.7094 20.5505 30.3568 20.3035 30.2125C20.1889 30.1406 20.0958 30.0713 20 30" stroke="#EEEEEE" style="stroke:#EEEEEE;stroke:color(display-p3 0.9342 0.9342 0.9342);stroke-opacity:1;" stroke-linecap="round"/>
<path d="M29.5009 34.8143C29.4746 34.5918 29.139 33.3849 28.5484 32.0532C28.1322 31.1146 27.5018 29.9243 26.5989 27.944C25.6836 25.5324 25.0262 23.8545 24.7705 23.2927C24.6291 22.9628 24.4643 22.5422 24.2744 21.7607" stroke="#EEEEEE" style="stroke:#EEEEEE;stroke:color(display-p3 0.9342 0.9342 0.9342);stroke-opacity:1;" stroke-linecap="round"/>
<path d="M29.8848 36.9472C29.9118 36.7782 30.1566 35.9837 30.4632 35.3342C30.8838 34.4435 31.324 33.639 31.7696 32.9771C32.21 32.323 32.6117 31.332 34.0565 28.5573C34.5798 27.5935 35.218 26.4433 35.6448 25.6722C36.0716 24.901 36.2676 24.5438 36.5856 24.0342" stroke="#EEEEEE" style="stroke:#EEEEEE;stroke:color(display-p3 0.9342 0.9342 0.9342);stroke-opacity:1;" stroke-linecap="round"/>
<path d="M23 36C23.0103 35.8268 23.4085 34.5498 24.2261 32.5685C24.6778 31.4741 25.4952 29.4822 26.1316 27.8018C27.2567 24.8306 27.7704 23.2175 28.1912 22.331C28.4852 21.6921 28.9425 20.6693 29.2493 20.0513C29.5561 19.4333 29.6985 19.2511 30 19" stroke="#EEEEEE" style="stroke:#EEEEEE;stroke:color(display-p3 0.9342 0.9342 0.9342);stroke-opacity:1;" stroke-linecap="round"/>
<path d="M29.3301 34.8443C29.6354 34.7795 30.8743 34.3917 31.696 34.0872C32.6503 33.7029 33.523 33.3915 34.1999 33.1389C34.5082 33.0318 34.7447 32.9673 35.0678 32.8984" stroke="#EEEEEE" style="stroke:#EEEEEE;stroke:color(display-p3 0.9342 0.9342 0.9342);stroke-opacity:1;" stroke-linecap="round"/>
<path d="M31.7822 42.4209C31.9137 42.4977 32.4752 42.9293 33.6831 43.9638C34.5666 44.7225 35.9995 45.9557 37.365 47.2407C38.7304 48.5256 39.985 49.8249 41.3642 51.3198" stroke="#EEEEEE" style="stroke:#EEEEEE;stroke:color(display-p3 0.9342 0.9342 0.9342);stroke-opacity:1;" stroke-linecap="round"/>
<path d="M31 44C31 44 31 44 31 47.3C31 50.6 31 57.2 31 64" stroke="#EEEEEE" style="stroke:#EEEEEE;stroke:color(display-p3 0.9342 0.9342 0.9342);stroke-opacity:1;" stroke-linecap="round"/>
<path d="M28 48C27.7755 48.0646 27.0303 48.4444 25.6421 49.4439C24.5867 50.2037 22.8014 51.4402 21.6972 52.1887C20.2193 53.1509 19.7142 53.4451 19.4835 53.5968C19.3732 53.6747 19.2763 53.7542 19 54" stroke="#EEEEEE" style="stroke:#EEEEEE;stroke:color(display-p3 0.9342 0.9342 0.9342);stroke-opacity:1;" stroke-linecap="round"/>
<path d="M24 46C23.8307 46 23.2877 45.9028 22.1132 45.3085C20.4622 44.4134 18.7869 43.5962 18.401 43.2294C18.3068 43.1443 18.2125 43.0763 18 43" stroke="#EEEEEE" style="stroke:#EEEEEE;stroke:color(display-p3 0.9342 0.9342 0.9342);stroke-opacity:1;" stroke-linecap="round"/>
<path d="M44.4959 55.0586C44.4569 55.301 44.1781 56.5136 43.8221 57.8676C43.6088 58.6788 43.2659 59.8731 42.6512 61.3955C42.296 62.1233 41.7577 62.8806 41.3224 63.491C41.214 63.632 41.0723 63.78 40.7314 64.075" stroke="#EEEEEE" style="stroke:#EEEEEE;stroke:color(display-p3 0.9342 0.9342 0.9342);stroke-opacity:1;" stroke-linecap="round"/>
<path d="M42.9727 51C42.9727 51.0054 42.9811 52.2666 42.9741 54.0824C42.9726 54.4617 42.8337 54.4969 42.6873 55.4575C42.3883 57.4196 42.2612 58.3711 42.0868 58.4948C40.6556 59.5092 41.2434 60.9268 40.6792 61.6032C40.2544 62.1124 39.9282 63.2037 39.693 63.658C39.4578 64.1122 39.4576 63.9838 39.4955 63.7602C39.5335 63.5366 39.6095 63.2218 39.6184 63.139C39.5668 63.2151 39.3932 63.5971 39.1969 63.9642C39.112 64.1129 39.0568 64.1854 39 64.2602" stroke="#EEEEEE" style="stroke:#EEEEEE;stroke:color(display-p3 0.9342 0.9342 0.9342);stroke-opacity:1;" stroke-linecap="round"/>
<path d="M18.003 40.2461C18.003 40.254 18.0025 40.4059 17.9845 40.7983C17.9577 41.3812 17.8399 42.7942 17.7519 44.9463C17.7076 46.0302 17.719 47.0991 17.7415 47.8626C17.7977 49.7662 18.1289 50.4948 18.2855 51.1714C18.4343 51.8142 18.4839 52.4192 18.5611 52.7958C18.6372 53.1669 18.8178 54.4408 19.1067 55.9412C19.2766 56.8233 19.3246 57.4741 19.4932 58.3461C19.6114 58.9582 20.5515 60.7894 21.0855 61.8803C21.3551 62.4476 21.571 63.045 21.8336 63.6429C21.9104 63.7714 21.985 63.8437 22.1491 63.9747" stroke="#EEEEEE" style="stroke:#EEEEEE;stroke:color(display-p3 0.9342 0.9342 0.9342);stroke-opacity:1;" stroke-linecap="round"/>
<path d="M18.4014 35.6518C18.4014 35.0498 18.4541 33.6858 18.4987 33.1119C18.5787 32.0842 19.1845 30.6747 19.6777 29.2352C20.0821 28.0547 20.5229 27.3128 20.9058 26.5662C21.3004 25.7968 21.9048 24.7724 22.6254 23.7843C22.9972 23.2745 23.3046 22.9241 23.8131 22.3418C24.4171 21.6502 24.9477 21.2254 25.6446 20.7152C27.5763 19.3012 28.8522 18.7435 29.9825 18.4083C30.4184 18.322 30.9901 18.2543 31.4107 18.2194C31.8313 18.1846 32.0834 18.1846 32.3432 18.1846" stroke="#EEEEEE" style="stroke:#EEEEEE;stroke:color(display-p3 0.9342 0.9342 0.9342);stroke-opacity:1;" stroke-linecap="round"/>
<path d="M10.8335 36.0195C10.8364 36.3125 10.9289 37.0662 11.1843 38.0395C11.3632 38.7213 11.9088 39.1224 12.4248 39.3957C13.0361 39.7195 13.4257 40.239 14.1541 40.7333C14.9766 41.2915 15.6702 41.5744 17.5692 42.7825C19.1578 43.7932 19.9916 44.3128 20.6377 44.7543C21.4151 45.2856 22.2954 45.7735 23.0319 46.2053C23.2008 46.3118 23.3766 46.4271 23.5886 46.545C23.8006 46.6629 24.0435 46.78 24.582 46.9657" stroke="black" style="stroke:black;stroke-opacity:1;" stroke-linecap="round"/>
<path d="M18.0586 31.5811C18.346 31.6269 19.2568 31.9123 19.9972 32.19C21.4073 32.719 22.4885 33.3873 23.7691 33.9728C24.6076 34.3852 25.392 34.7753 25.7983 34.9496C25.9995 35.05 26.1906 35.1748 26.6426 35.4836" stroke="black" style="stroke:black;stroke-opacity:1;" stroke-linecap="round"/>
<path d="M31.9601 41.498C31.972 41.6596 32.0518 43.3315 31.8027 44.7724C31.6115 45.8781 30.7777 46.5717 30.3265 47.1438C29.9431 47.6299 29.2125 47.7177 27.2675 47.7762C25.8807 47.3722 24.4632 46.4723 24.0024 46.0398C23.8105 45.8663 23.7036 45.786 23.5352 45.6449" stroke="black" style="stroke:black;stroke-opacity:1;" stroke-linecap="round"/>
<path d="M7.58008 63.2202C7.72168 63.0103 8.14524 62.3043 8.52012 61.6589C9.02623 60.7876 9.30312 60.1308 9.64081 59.5733C10.266 58.541 11.0339 57.4908 11.4398 56.8408C11.8141 56.3518 12.3001 55.7047 12.7314 55.1917C12.9033 54.9905 12.9797 54.909 13.0826 54.7881" stroke="black" style="stroke:black;stroke-opacity:1;" stroke-linecap="round"/>
<path d="M13.0825 53.5156C13.1174 53.7145 13.32 54.3032 13.7429 54.897C14.1942 55.2945 14.8047 55.6003 15.3297 55.6968C15.4867 55.7062 15.6832 55.705 15.9681 55.6211" stroke="black" style="stroke:black;stroke-opacity:1;" stroke-linecap="round"/>
<path d="M13.5669 53.5013C13.6418 53.3789 13.9164 52.9979 14.1888 52.5835C14.4761 52.1223 14.6783 51.7662 14.8436 51.5556C14.9303 51.4503 15.0228 51.3483 15.1181 51.2432" stroke="black" style="stroke:black;stroke-opacity:1;" stroke-linecap="round"/>
<path d="M17.7082 43.1777C17.7398 43.3017 17.804 44.1009 16.9494 45.841C15.6673 48.4517 15.1294 49.116 15.0769 50.5923C15.0614 51.027 15.2003 51.24 15.3537 51.4526C15.7368 51.9834 16.5558 52.2539 17.4619 52.43C18.0393 52.5422 18.53 52.3481 18.7923 52.1514C19.5037 51.618 20.0471 50.4416 21.0758 48.9414C22.2901 47.4064 23.0722 46.8753 23.9883 46.3313C24.3412 46.1295 24.4669 46.0784 24.6796 45.996" stroke="black" style="stroke:black;stroke-opacity:1;" stroke-linecap="round"/>
<path d="M16.2974 55.4136C16.3402 55.3302 16.6706 54.8867 16.9716 54.5355C17.1916 54.2788 17.4307 54.0312 17.7344 53.6692C17.8331 53.5284 17.9644 53.3279 18.0689 53.192C18.1735 53.0562 18.2473 52.9911 18.3933 52.8936" stroke="black" style="stroke:black;stroke-opacity:1;" stroke-linecap="round"/>
<path d="M14.5186 54.8108C14.5194 54.7778 14.6929 54.4973 15.0527 54.0563C15.412 53.6159 15.6676 53.4148 15.7387 53.344C15.8581 53.2059 16.0023 53.0408 16.125 52.9119C16.1772 52.8599 16.2091 52.8351 16.242 52.8096" stroke="black" style="stroke:black;stroke-opacity:1;" stroke-linecap="round"/>
<path d="M7.20166 62.9922C7.03594 62.9922 6.56992 63.058 6.37354 63.2593C6.3453 63.3195 6.33765 63.3848 6.34377 63.4526C6.34989 63.5203 6.37001 63.5886 6.52103 63.7061" stroke="black" style="stroke:black;stroke-opacity:1;" stroke-linecap="round"/>
<path d="M8.91455 63.8362C8.96453 63.7406 9.26741 63.324 9.72977 62.6776C10.0289 62.2594 10.3799 61.8479 10.6688 61.4457C10.8774 61.1552 11.3089 60.5928 11.6928 60.0866C12.0682 59.5915 12.3384 59.232 12.783 58.7252C13.1499 58.3069 13.5067 57.8695 13.7937 57.5213C13.9839 57.2258 14.1596 56.9382 14.4742 56.5242C14.6015 56.3851 14.784 56.2026 14.9719 56.0146" stroke="black" style="stroke:black;stroke-opacity:1;" stroke-linecap="round"/>
<path d="M18.4384 47.2606C18.4111 47.3194 18.3748 47.6616 18.4951 47.9519C18.6113 48.2323 19.2712 48.1613 19.667 48.0587C19.9087 47.996 19.9201 47.5286 19.9292 46.7707C19.931 46.6186 19.8587 46.5794 19.7623 46.5557C19.5222 46.5268 19.2973 46.5706 19.1509 46.6577C19.0816 46.6956 19.0223 46.7208 18.9134 46.8011" stroke="black" style="stroke:black;stroke-opacity:1;" stroke-linecap="round"/>
<path d="M27.0991 35.6816C27.2634 35.7476 27.6954 35.9242 27.985 36.0981C28.2187 36.2385 28.5687 36.4487 28.9281 36.7009C29.6375 37.1987 29.7471 37.5459 29.8733 37.7802C29.9325 37.9041 29.9892 38.022 30.0362 38.1286C30.0591 38.1839 30.0799 38.2414 30.1141 38.3214" stroke="black" style="stroke:black;stroke-opacity:1;" stroke-linecap="round"/>
</svg>
