<svg width="65" height="64" viewBox="0 0 65 64" fill="none" xmlns="http://www.w3.org/2000/svg">
<rect x="0.333618" width="64" height="64" fill="#FAFAFA" style="fill:#FAFAFA;fill:color(display-p3 0.9804 0.9804 0.9804);fill-opacity:1;"/>
<path d="M7.57971 34.7669C7.57971 34.7413 8.51871 34.7152 10.0163 34.8813C11.7796 35.0769 11.729 37.6365 12.2653 38.2548C13.8493 40.0811 17.5073 38.8684 18.243 39.1217C20.075 39.7525 19.9623 43.2609 20.5113 45.0705C21.3943 47.9813 22.1943 52.3922 22.0908 54.0914C22.0495 54.7696 21.6621 55.0261 21.336 55.1942C20.0134 55.8759 18.2895 55.6984 17.013 56.474C15.7245 57.2568 15.9867 59.5904 15.1262 60.8183C14.8308 60.985 14.452 61.0111 14.1593 60.8699C13.8666 60.7288 13.6715 60.4196 13.3886 59.432" stroke="black" style="stroke:black;stroke-opacity:1;" stroke-linecap="round"/>
<path d="M20.3068 39.0296C21.7903 39.0296 25.4857 38.8308 26.9822 38.6165C28.4964 38.3997 30.0928 38.2439 32.0121 37.8472C33.7595 37.4861 35.5476 37.3381 37.6735 37.1077C39.9711 36.8586 41.7144 36.5696 44.7771 35.9883C48.1439 35.3493 50.1383 34.8224 51.9178 34.3345C53.977 33.7699 56.3331 33.8675 57.9183 34.545C59.9785 35.4255 59.924 39.8568 60.0783 41.7581C60.4001 45.723 59.9037 49.9963 59.1732 51.3306C58.9925 51.6606 58.7661 51.9448 58.4649 52.137C56.9302 53.1166 49.2306 52.8239 43.7728 52.1603C40.5996 51.7745 37.7905 50.3736 33.4161 50.1164C31.2851 49.991 29.7555 50.4944 27.9861 50.8485C26.2395 51.4657 24.9352 52.3015 23.7422 53.4187C23.4461 53.6831 23.1612 53.8915 22.7413 54.2423" stroke="black" style="stroke:black;stroke-opacity:1;" stroke-linecap="round"/>
<path d="M5.67529 28.285C6.11719 28.273 8.12478 27.7313 9.91153 27.0494C12.7356 25.9718 16.3908 26.8036 17.9759 27.1795C20.0524 27.6721 22.7705 27.2021 24.4966 26.8324C26.2078 26.4658 28.0947 25.5489 30.8472 24.9516C34.8502 24.0828 37.8507 23.0006 39.8284 22.4558C42.2965 21.7758 43.917 21.2687 45.4276 20.5779C45.7924 20.4111 46.0244 20.1009 46.1573 19.6277C46.7674 17.4541 46.0598 16.1676 45.7967 15.5777C45.5442 15.0117 44.5313 15.1781 43.9154 15.2362C42.5912 15.3611 42.9515 17.4734 42.5463 18.0732C41.432 19.7229 38.8192 18.9217 36.3492 19.8796C33.8763 20.8386 30.2249 21.4711 27.8738 22.3727C25.3827 23.3279 22.2256 23.9203 20.1414 23.9414C18.4158 23.9589 16.7965 22.5801 15.1979 21.8955C13.5736 21.1999 11.2919 21.0423 9.24386 21.5372C7.63085 21.9271 6.07681 22.306 4.62501 22.8474C4.24651 22.9885 3.84791 23.1161 3.57735 23.3831C3.3068 23.65 3.1758 24.0508 3.21779 24.3984C4.02677 25.6234 5.287 27.1386 6.11687 28.715C6.28852 29.0864 6.45341 29.4464 6.62331 29.8173" stroke="black" style="stroke:black;stroke-opacity:1;" stroke-linecap="round"/>
<path d="M6.56213 28.1567C6.56213 29.4451 6.63313 32.3706 6.92346 32.9998C7.55044 34.3585 10.0363 33.3214 11.5482 33.0104C13.0703 32.6973 14.5145 32.4664 16.0866 32.5326C17.8944 32.6087 19.8845 33.435 23.0743 33.4193C25.3852 33.4079 28.2503 31.6104 30.7775 30.5263C33.3509 29.4224 36.8503 28.638 38.9928 28.0964C43.7509 26.8935 45.689 25.9815 47.2714 25.4415C47.6479 25.313 47.9871 25.1651 48.1849 24.9099C49.1671 23.6429 48.2085 21.4965 47.5698 19.9323C47.4118 19.4072 47.251 18.711 47.0637 18.175C46.8765 17.6391 46.6676 17.2846 46.0943 16.4141" stroke="black" style="stroke:black;stroke-opacity:1;" stroke-linecap="round"/>
<path d="M14.4595 41.7938C14.455 41.7938 14.4506 41.7938 14.9491 41.7938C15.4475 41.7938 16.4491 41.7938 17.0559 41.7585C17.6627 41.7231 17.8444 41.6524 18.3034 41.5215" stroke="black" style="stroke:black;stroke-opacity:1;" stroke-linecap="round"/>
<path d="M15.6525 44.6793C15.6613 44.6793 15.9343 44.6743 16.554 44.6093C16.9054 44.5492 17.3317 44.4341 17.6197 44.3466C17.9077 44.2592 18.0444 44.2029 18.4916 44.0781" stroke="black" style="stroke:black;stroke-opacity:1;" stroke-linecap="round"/>
<path d="M16.13 48.0874C16.3815 48.0839 17.2695 48.0024 18.1082 47.711C18.3013 47.6482 18.4478 47.6206 18.5908 47.5732C18.7338 47.5258 18.8688 47.4594 19.2565 47.2715" stroke="black" style="stroke:black;stroke-opacity:1;" stroke-linecap="round"/>
<path d="M16.7301 50.8197C16.7482 50.8197 17.2931 50.5584 18.1958 50.1394C18.7458 49.9353 19.0741 49.8657 19.3758 49.8195C19.5376 49.7952 19.717 49.7691 19.9018 49.7422" stroke="black" style="stroke:black;stroke-opacity:1;" stroke-linecap="round"/>
<path d="M17.3824 53.7642C17.3913 53.7642 17.5082 53.6835 17.8209 53.5021C18.3065 53.2829 18.7608 53.1159 19.0703 53.0292C19.2195 52.9875 19.3525 52.9504 19.7258 52.8643" stroke="black" style="stroke:black;stroke-opacity:1;" stroke-linecap="round"/>
<path d="M7.56946 35.2656C7.66398 35.3975 7.96909 35.8351 8.24697 36.2498C8.6391 36.8349 8.9522 37.6671 9.62425 38.9768C9.95111 39.6138 10.1679 40.1542 10.4812 40.6762C10.859 41.3057 11.1013 41.787 11.4775 42.8023C11.9415 44.0548 12.4167 45.5161 12.8668 47.612C13.0357 48.6671 13.2169 50.2707 13.3973 53.0183C13.4802 54.59 13.5456 56.5219 13.5285 58.7949" stroke="black" style="stroke:black;stroke-opacity:1;" stroke-linecap="round"/>
<path d="M8.79508 37.5791C8.47611 37.5791 7.53912 37.6914 6.97415 37.9947C6.18306 38.4195 6.53789 40.1512 6.46789 41.09C5.84331 41.7746 4.79485 42.2233 3.58337 42.7068C3.23413 42.8314 2.84725 42.9408 2.24963 43.1397" stroke="black" style="stroke:black;stroke-opacity:1;" stroke-linecap="round"/>
<path d="M13.264 57.27C13.1457 57.2984 12.6874 57.4153 12.1216 57.469C11.9743 57.483 11.8363 57.5004 11.7211 57.4737C11.167 57.3451 10.8876 56.4117 10.2899 55.9131C9.28834 55.0777 8.25188 56.1338 7.40185 56.6152C6.59438 57.0725 5.72169 57.1897 4.82494 57.5454C4.65806 57.6386 4.53668 57.7172 4.41573 57.7698C4.29477 57.8224 4.17793 57.8466 4.01135 57.8715" stroke="black" style="stroke:black;stroke-opacity:1;" stroke-linecap="round"/>
<path d="M7.47738 35.2285C7.46975 35.2285 7.2276 35.2285 6.86057 35.4417C6.7196 36.0814 6.74503 36.6352 6.81114 36.8717C6.83927 36.994 6.85642 37.1206 6.8741 37.2511" stroke="black" style="stroke:black;stroke-opacity:1;" stroke-linecap="round"/>
<path d="M11.9918 58.5195C12.0126 58.6558 12.2253 59.2789 12.5619 59.7569C12.8913 60.1004 13.1939 60.4172 13.4356 60.7034C13.5547 60.831 13.6667 60.9231 14.0122 61.1108" stroke="black" style="stroke:black;stroke-opacity:1;" stroke-linecap="round"/>
<path d="M3.29732 24.0664C3.28638 24.0664 2.93856 24.0664 2.27835 24.1102C1.96032 24.1539 1.67682 24.2414 1.42382 24.3359C1.17083 24.4304 0.95694 24.5292 0.500122 24.7713" stroke="black" style="stroke:black;stroke-opacity:1;" stroke-linecap="round"/>
<path d="M7.41683 27.9844C7.13694 28.0121 5.53351 28.0685 3.49874 28.2831C3.10737 28.3287 2.88759 28.3327 2.6444 28.3715C2.4012 28.4102 2.14125 28.4836 1.49231 28.7721" stroke="black" style="stroke:black;stroke-opacity:1;" stroke-linecap="round"/>
<path d="M7.30904 34.6096C7.30904 34.5904 7.30904 34.277 7.30165 33.7454C7.29427 33.5172 7.2795 33.3736 7.27189 33.2274C7.26428 33.0812 7.26428 32.9368 7.26428 32.7881" stroke="black" style="stroke:black;stroke-opacity:1;" stroke-linecap="round"/>
<path d="M0.740845 29.9395C0.895693 30.0572 1.42095 30.5581 1.78941 31.1998C2.27833 32.0513 2.20397 34.7599 2.31521 37.225C2.39861 39.0731 2.64175 39.7612 3.00411 41.3764C3.09918 41.7305 3.1638 41.8935 3.22709 42.0426C3.29037 42.1917 3.35037 42.3218 3.44744 42.57" stroke="black" style="stroke:black;stroke-opacity:1;" stroke-linecap="round"/>
<path d="M41.7711 49.3049C42.0005 49.2955 43.7979 49.4966 44.9655 49.6601C45.406 49.7218 46.1603 49.8643 47.0965 49.9941C47.8564 50.0995 48.6862 50.2701 49.9039 50.3697C51.5445 50.5039 52.6854 50.4362 53.5144 50.3099C55.2708 50.0422 56.6492 49.7244 57.0874 49.599C57.6463 49.4391 58.2752 49.2388 58.84 49.0191C58.9906 48.9464 59.1838 48.8398 59.3222 48.7666C59.4607 48.6935 59.5386 48.6568 59.6037 48.5498" stroke="black" style="stroke:black;stroke-opacity:1;" stroke-linecap="round"/>
</svg>
