<svg width="65" height="64" viewBox="0 0 65 64" fill="none" xmlns="http://www.w3.org/2000/svg">
<rect x="0.687988" width="64" height="64" fill="#FAFAFA" style="fill:#FAFAFA;fill:color(display-p3 0.9804 0.9804 0.9804);fill-opacity:1;"/>
<path d="M41.9961 18.4277C41.9279 18.7588 40.8578 20.6986 37.2456 24.7218C34.201 28.1127 31.3883 30.6695 30.5617 31.3962C30.3079 31.6193 32.651 33.6481 36.5217 36.844C39.9825 39.4959 42.3833 41.3657 44.0733 42.7785C45.0239 43.5342 46.1634 44.3682 47.4139 45.249" stroke="black" style="stroke:black;stroke-opacity:1;" stroke-linecap="round"/>
<path d="M43.4736 17.293C43.7411 17.4087 47.5335 19.9493 50.3584 22.2865C51.6409 23.3476 54.3295 25.9175 55.7902 27.284C56.4359 27.8881 57.8731 29.3106 59.53 31.1173C60.3851 32.0497 60.1954 32.922 60.0429 33.7364C59.8393 34.8229 58.3307 37.4224 56.4718 40.568C55.361 42.4477 52.5153 43.5736 49.1626 44.5573C48.5717 44.6975 48.3507 44.7518 48.1118 44.7865C47.8729 44.8211 47.6228 44.8345 47.2113 44.8782" stroke="black" style="stroke:black;stroke-opacity:1;" stroke-linecap="round"/>
<path d="M30.688 32C30.688 33.157 30.7211 35.702 30.8819 36.1661C31.2354 37.1866 32.188 37.5265 32.7576 38.1271C33.368 38.7708 33.9982 39.5385 35.0459 40.5717C36.2695 41.7783 36.8277 42.4222 38.3694 43.7096C40.6858 45.6441 41.9766 46.2721 42.8849 46.8171C43.757 47.3404 44.6304 48.0228 45.4365 48.5926C46.2261 49.1507 48.7229 49.066 50.2425 48.7525C51.2307 48.5487 52.1012 47.917 53.2477 47.4788C54.1468 47.1351 54.9568 46.7364 55.708 46.3429C56.5607 45.8962 57.4261 45.4179 58.0809 44.8647C58.913 44.1617 60.1261 43.1134 60.4116 42.2936C60.688 41.5 61.688 40.5 61.688 39C61.688 37.4652 61.188 36.5 60.688 34.248C60.5716 33.7239 60.5556 33.5308 60.4116 33.419" stroke="black" style="stroke:black;stroke-opacity:1;" stroke-linecap="round"/>
<path d="M37.395 25.7148C37.7142 25.9111 39.0535 26.9406 40.0903 27.8011C40.7712 28.3662 41.5895 28.906 42.553 29.6261C43.32 30.1992 43.9372 30.7559 44.7163 31.1847C45.503 31.6176 46.2061 32.1397 47.5951 33.3594C48.0724 33.7786 48.2335 34.2323 48.312 34.7611C48.4766 35.8704 47.8325 36.9202 47.0595 38.8407C46.5286 40.4096 46.1654 41.5093 46.0403 41.9356C45.981 42.1764 45.9305 42.4672 45.8195 42.8272" stroke="black" style="stroke:black;stroke-opacity:1;" stroke-linecap="round"/>
<path d="M48.9927 44.7683C49.0116 44.5458 49.333 43.1155 49.6391 41.8365C49.9933 40.3566 50.1899 39.2011 50.8798 37.8829C51.013 37.6285 51.3007 37.7048 51.5161 37.7971C52.4264 38.1872 53.2891 39.2307 54.07 39.947C54.2233 40.0915 54.369 40.2362 54.537 40.4035C54.7049 40.5707 54.8905 40.7562 55.2785 41.186" stroke="black" style="stroke:black;stroke-opacity:1;" stroke-linecap="round"/>
<path d="M39.7974 23.2363C40.0042 23.3063 40.9283 23.8363 41.7931 24.544C42.5092 25.13 43.2839 25.7729 44.4257 27.0101C45.1898 27.8379 46.3167 28.9451 47.3783 29.7447C48.5962 30.662 49.5787 31.0974 50.3781 31.289C52.0032 31.492 54.2794 31.5143 55.4151 31.4798C56.2279 31.4625 57.521 31.4456 58.8532 31.4282" stroke="black" style="stroke:black;stroke-opacity:1;" stroke-linecap="round"/>
<path d="M57.5664 38.0029C57.1037 37.6041 55.0568 36.086 54.0723 35.039C54.8134 34.8138 55.7877 34.6602 56.7829 34.489C57.0337 34.4684 58.6309 34.1445 59.188 34" stroke="black" style="stroke:black;stroke-opacity:1;" stroke-linecap="round"/>
<path d="M55.6628 41.4365C55.6628 41.4797 55.6368 41.6758 55.597 42.1072C55.5304 42.8306 55.7643 43.2192 55.9613 43.4883C56.3161 43.9731 56.728 44.1323 57.0362 44.264C57.1342 44.2812 57.3756 44.2859 57.6965 44.2793C57.823 44.2726 57.8757 44.2593 57.9505 44.2438" stroke="black" style="stroke:black;stroke-opacity:1;" stroke-linecap="round"/>
<path d="M58.1665 38.6064C58.4235 38.6002 59.0379 38.6174 59.4766 38.9006C59.7708 39.0905 59.8823 39.3081 60.0903 39.8224C60.2558 40.3208 60.3601 40.6638 60.3814 40.9283C60.3931 41.1452 60.4063 41.53 60.3728 41.9931" stroke="black" style="stroke:black;stroke-opacity:1;" stroke-linecap="round"/>
<path d="M42.2026 18.1496C42.2026 18.1393 42.2441 18.0156 42.3348 17.8024C42.384 17.7077 42.4397 17.6401 42.4943 17.5629C42.5488 17.4857 42.6005 17.401 42.7338 17.2676" stroke="black" style="stroke:black;stroke-opacity:1;" stroke-linecap="round"/>
<path d="M43.2134 18.2842C43.2134 18.2867 43.2134 18.2891 43.2134 18.9609C43.2134 19.6327 43.2134 20.9737 43.2457 22.5322" stroke="black" style="stroke:black;stroke-opacity:1;" stroke-linecap="round"/>
<path d="M43.688 23C43.8157 23.0864 45.1823 23.9589 46.0705 24.5594C46.5753 24.9007 47.372 25.7033 47.91 26.1331C48.6785 26.747 49.2774 27.5802 49.9755 28.241C50.8246 29.0446 52.145 30.0088 52.6483 30.289C52.9901 30.4112 53.2363 30.5079 53.4053 30.5852C53.4959 30.6314 53.5965 30.6918 53.7773 30.8373" stroke="black" style="stroke:black;stroke-opacity:1;" stroke-linecap="round"/>
<path d="M35.6934 33.0461C35.7955 32.9057 36.2706 32.2386 36.6306 31.8137C36.8201 31.6001 36.9781 31.4195 37.0884 31.3036C37.1468 31.2441 37.2102 31.1831 37.2968 31.1074" stroke="black" style="stroke:black;stroke-opacity:1;" stroke-linecap="round"/>
<path d="M37.2134 25.9727C37.2134 26.2802 37.3009 27.9788 37.4353 29.2622C37.4864 29.7497 37.4996 30.142 37.533 30.3872C37.6138 30.9805 38.7737 31.3231 39.738 31.9303C40.3114 32.2914 40.7722 32.5737 41.2386 32.9533C42.0371 33.6033 42.6979 34.1837 43.0472 34.5025C43.8602 35.2446 45.2383 35.9822 45.78 36.3909C46.3897 36.7693 46.8315 37.1996 47.1465 37.5968C47.2845 37.7608 47.3783 37.8488 47.4749 37.9394" stroke="black" style="stroke:black;stroke-opacity:1;" stroke-linecap="round"/>
<path d="M42.688 24.4953C42.688 24.4891 42.7232 24.3722 42.8005 24.1552C42.8903 23.9626 43.0632 23.6745 43.2763 23.3354C43.3659 23.1922 43.4175 23.1077 43.4882 23" stroke="black" style="stroke:black;stroke-opacity:1;" stroke-linecap="round"/>
<path d="M35.7386 33.083C35.6634 33.1584 35.3791 33.4185 35.1566 33.6268C34.9672 33.7975 34.737 34.0286 34.5119 34.2752C34.456 34.3379 34.3904 34.4057 34.3228 34.4756" stroke="black" style="stroke:black;stroke-opacity:1;" stroke-linecap="round"/>
<path d="M55.6597 36.1223C55.7719 36.1194 56.2305 36.0558 56.537 35.9703C56.8502 35.883 57.092 35.8373 57.2443 35.8067C57.5718 35.7409 58.0257 35.6794 58.2211 35.6508C58.3178 35.6393 58.4956 35.634 58.7163 35.6301C58.806 35.6262 58.8503 35.6184 58.8959 35.6104" stroke="black" style="stroke:black;stroke-opacity:1;" stroke-linecap="round"/>
<path d="M51.0645 43.2836C51.0721 43.184 51.1825 42.6804 51.3401 42.2583C51.441 41.988 51.5374 41.7363 51.6079 41.4757C51.6239 41.4164 51.647 41.3651 51.6839 41.3272C51.7207 41.2893 51.7732 41.2671 51.8295 41.2625C52.0938 41.2408 52.3849 41.6747 52.8812 42.0802C53.1398 42.2845 53.2915 42.3875 53.3872 42.4794C53.4331 42.5236 53.4736 42.5629 53.6096 42.6496" stroke="black" style="stroke:black;stroke-opacity:1;" stroke-linecap="round"/>
<path d="M1.12305 9.64355C1.1325 9.64355 2.79787 9.66181 5.70191 9.77402C7.73728 9.85267 9.20932 10.4796 10.3515 10.9205C11.0025 11.1718 11.9617 11.6019 13.3599 12.3718C14.6167 13.0639 15.548 14.1218 16.4495 15.1217C17.9796 17.2483 18.7793 18.6839 18.9953 19.2394C19.1031 19.5325 19.2072 19.8484 19.3702 20.4675" stroke="black" style="stroke:black;stroke-opacity:1;" stroke-linecap="round"/>
<path d="M33.5853 27.9108C33.4953 27.8542 33.1725 27.6003 33.0012 27.4095C32.8471 27.2378 32.7207 26.7858 32.6435 26.1941C32.5679 25.6151 32.7059 25.0325 32.8484 24.6072C33.0843 23.9036 33.2334 23.6774 33.4405 23.2876C33.6301 22.9306 34.0289 22.5601 34.4852 22.1761C34.8636 21.8577 35.2875 21.7891 35.661 21.6413C35.9842 21.5133 36.207 21.567 36.4345 21.5661C36.6482 21.5652 37.2184 21.957 37.9713 22.3018C38.1427 22.3804 38.3121 22.4718 38.4358 22.5342C38.5595 22.5966 38.6324 22.6272 38.7472 22.7326" stroke="black" style="stroke:black;stroke-opacity:1;" stroke-linecap="round"/>
<path d="M32.8984 27.7734C32.8072 27.787 32.3348 27.8696 31.943 27.942C31.2965 28.0616 30.6615 28.3102 29.4992 28.7604C29.1637 28.8904 28.8435 29.0334 28.1836 29.2755C27.5237 29.5177 26.5356 29.859 25.5136 30.1833C24.4917 30.5077 23.4658 30.8047 22.7097 31.0408C21.9536 31.2769 21.4982 31.4429 20.5316 31.7364C19.565 32.0299 18.101 32.4458 16.6934 32.7887C15.2858 33.1315 13.9789 33.3887 13.2189 33.5214C11.8949 33.7524 11.1448 33.7781 10.8078 33.8114C10.4508 33.8819 10.0979 33.9754 9.97653 33.9843C9.91566 33.9902 9.85628 33.999 9.82666 34.0081" stroke="black" style="stroke:black;stroke-opacity:1;" stroke-linecap="round"/>
<path d="M35.4731 21.2236C34.9237 21.2248 33.3937 21.3207 32.8149 21.3995C32.1853 21.4853 31.7131 21.5441 31.387 21.5811C30.6562 21.664 30.0579 21.7617 29.4326 21.8472C28.9287 21.9161 28.0549 22.0978 27.1754 22.2707C26.2958 22.4435 25.4393 22.6177 24.1586 22.7934C22.8778 22.9691 21.1988 23.1412 20.278 23.2324C19.2453 23.3288 18.7849 23.4227 18.1844 23.5604C17.9292 23.6095 17.7747 23.6165 17.5386 23.6362" stroke="black" style="stroke:black;stroke-opacity:1;" stroke-linecap="round"/>
<path d="M16.4895 23.6807C16.3201 23.6825 15.5375 23.7637 14.6294 23.8424C14.3208 23.8691 13.8146 23.9449 12.9759 24.0499C11.3227 24.2568 10.836 24.3887 10.3417 24.4949C9.46561 24.6832 9.09289 24.8124 8.75696 24.9275C8.41508 25.0446 8.01868 25.3484 7.66343 25.6788C7.35369 25.9669 7.1223 26.4405 6.91289 26.7954C6.68402 27.1833 6.62919 27.5035 6.51566 28.0313C6.4172 28.489 6.46665 28.9626 6.4783 30.4729C6.48334 31.1265 6.89672 31.7181 7.21472 32.2399C7.48039 32.6759 7.65608 32.8974 7.99191 33.1129C8.40008 33.2795 8.84142 33.4521 9.14834 33.574C9.27133 33.623 9.32782 33.6458 9.39432 33.6787" stroke="black" style="stroke:black;stroke-opacity:1;" stroke-linecap="round"/>
<path d="M35.4239 20.9044C35.3199 20.8183 34.9713 20.5827 34.4333 20.3971C33.8088 20.1817 33.267 20.1257 32.9198 20.0586C32.5756 19.9922 32.1694 19.9005 31.2051 19.8788C30.7013 19.8674 29.3785 19.9729 28.4414 20.001C28.2434 20.0345 28.0975 20.0712 27.9409 20.1177C27.8491 20.1479 27.7324 20.1917 27.5767 20.2607" stroke="black" style="stroke:black;stroke-opacity:1;" stroke-linecap="round"/>
<path d="M26.5908 20.207C26.4569 20.207 25.682 20.259 24.7871 20.3849C24.332 20.449 24.0678 20.483 23.6651 20.5379C23.0446 20.6223 22.0032 20.7759 21.185 20.8504C20.4337 20.9189 19.4979 21.116 19.017 21.1723C18.7634 21.202 18.4907 21.282 18.0241 21.387C17.2286 21.566 16.5746 21.7524 15.5313 21.8414C14.6613 21.9157 13.0954 21.9953 12.2304 22.0373C11.0246 22.096 10.6728 21.9339 9.39335 21.9133C8.24426 21.8947 7.38079 21.9436 7.02844 22.0752C6.77304 22.1567 6.52178 22.2475 6.27143 22.3611C6.16729 22.4126 6.10966 22.4514 6.01318 22.5274" stroke="black" style="stroke:black;stroke-opacity:1;" stroke-linecap="round"/>
<path d="M5.61661 22.6523C5.52 22.7379 5.25468 22.9849 4.97249 23.3362C4.73453 23.6325 4.45745 23.9639 4.20785 24.2904C4.03839 24.512 3.80727 25.0228 3.55428 25.6758C3.36587 26.1622 3.31106 26.7344 3.22015 27.5435C3.10241 28.5913 3.16706 29.4139 3.23256 29.9172C3.39659 31.178 3.853 31.9365 4.22614 32.343C5.03727 33.2266 6.19703 33.3389 6.77845 33.4555C6.85638 33.4679 6.91949 33.483 7.15584 33.5217C7.39219 33.5605 7.79988 33.6224 8.35586 33.6863" stroke="black" style="stroke:black;stroke-opacity:1;" stroke-linecap="round"/>
<path d="M9.67433 27.1277C9.61625 27.1798 9.27223 27.5258 9.00782 27.8666C8.82896 28.0971 8.82778 29.4362 8.98427 30.4385C9.11532 31.2777 9.59919 31.3697 9.8349 31.5686C10.0414 31.7428 10.3747 31.7842 10.6555 31.8627C10.9243 31.9379 11.2773 31.9754 12.2604 31.9831C12.6793 31.9864 13.0011 31.8106 13.4055 31.6389C13.8467 31.4516 14.0773 31.2652 14.4715 30.7325C14.7158 30.4024 14.794 29.9823 14.8102 28.8688C14.8219 28.0646 13.9908 27.2152 13.632 26.9032C13.3134 26.6262 12.7746 26.5621 11.141 26.4971C10.582 26.5483 10.3162 26.6846 10.0315 26.9315C9.97359 27.0028 9.93876 27.0773 9.90289 27.154" stroke="black" style="stroke:black;stroke-opacity:1;" stroke-linecap="round"/>
<path d="M11.3723 28.8475C11.3125 28.9136 11.1317 29.1995 11.0969 29.7106C11.0844 29.8942 11.24 29.9862 11.3414 30.0519C11.4411 30.1166 11.7461 30.1348 12.1557 30.126C12.413 30.1205 12.5474 29.9632 12.6461 29.8254C12.8314 29.5669 12.8405 29.236 12.8158 29.0471C12.7975 28.9072 12.6122 28.8644 12.4543 28.8157C12.2143 28.8051 12.0137 28.8331 11.8952 28.8922C11.833 28.928 11.7667 28.9755 11.6983 29.0244" stroke="black" style="stroke:black;stroke-opacity:1;" stroke-linecap="round"/>
<path d="M21.2883 32.1895C21.2993 32.3172 21.3332 33.8812 21.2503 34.9396C21.1733 35.9235 20.594 37.4187 20.4069 38.2112C20.27 38.7911 19.6401 40.9037 18.7746 42.8735C18.4957 43.5083 17.955 43.9106 17.1947 44.6844C16.6506 45.2381 15.7765 45.9326 14.7021 46.6792C12.9543 47.8937 11.8716 47.9802 10.3531 48.3805C8.9011 48.7634 7.55534 49.1338 6.0351 49.2404C1.7652 49.2973 1.26748 49.2632 0.968406 49.2365C0.815449 49.2245 0.660079 49.2156 0.5 49.2065" stroke="black" style="stroke:black;stroke-opacity:1;" stroke-linecap="round"/>
</svg>
