<svg width="65" height="64" viewBox="0 0 65 64" fill="none" xmlns="http://www.w3.org/2000/svg">
<rect x="0.252014" width="64" height="64" fill="#FAFAFA" style="fill:#FAFAFA;fill:color(display-p3 0.9804 0.9804 0.9804);fill-opacity:1;"/>
<path d="M23.884 25.3809C23.7031 25.411 22.913 25.7104 22.3845 26.1446C22.1361 26.3487 22.1061 26.8703 21.989 27.762C21.786 29.3079 22.2665 31.193 22.9121 32.6198C23.3571 33.6032 23.9852 34.2722 24.4212 34.9845C24.7592 35.5368 25.7488 37.7115 27.1826 40.6195C28.2017 42.6864 28.7964 43.266 29.4838 44.3858C29.7361 44.7759 30.0797 45.2636 30.3064 45.6112C30.5332 45.9587 30.6327 46.1512 30.7352 46.3495" stroke="black" style="stroke:black;stroke-opacity:1;" stroke-linecap="round"/>
<path d="M24.5513 24.9188C24.684 24.8532 25.1452 24.6322 25.6753 24.3319C26.2811 23.9888 26.9971 23.6391 27.7745 23.364C29.2721 22.8339 30.4078 22.2255 31.0044 21.9305C31.5238 21.6737 31.9883 21.5259 32.5172 21.312C32.9483 21.1376 33.642 20.9243 35.1026 20.892C35.6202 20.8806 35.9472 21.1191 36.1969 21.2865C36.5992 21.5561 36.8545 22.2071 37.1199 22.7218C37.3308 23.131 37.6878 23.6073 38.1664 24.2706C39.2789 25.8124 39.7428 26.5799 40.273 27.3907C40.6307 27.9378 40.8455 28.4353 41.8132 29.866C42.3749 30.6965 43.0471 31.6037 43.5271 32.4742C44.2003 33.695 44.4264 34.3774 44.8843 34.9683C45.4436 35.6901 46.0189 36.5411 46.3478 37.2124C46.5812 37.6374 46.8218 38.0301 47.1684 38.6328C47.2506 38.7694 47.3127 38.8547 47.4908 39.1595" stroke="black" style="stroke:black;stroke-opacity:1;" stroke-linecap="round"/>
<path d="M47.4907 39.1592C47.5948 39.2216 47.9369 39.4976 48.1766 39.8744C48.4649 40.3276 48.5142 41.106 48.705 42.1032C48.9278 43.2671 48.9059 44.6356 48.75 45.6527C48.6507 46.3001 48.3358 46.7496 47.9549 47.2851C47.6103 47.7695 47.0977 48.2341 46.7382 48.6256C46.3025 49.1003 45.8982 49.4354 45.0416 49.8046C43.7567 50.3584 42.9359 50.4558 41.6606 50.5108C38.7865 50.6349 36.7551 50.4928 36.4894 50.4136C35.9767 50.2607 35.2106 49.7423 33.9833 49.0613C33.3259 48.6965 32.8475 48.4425 32.2198 48.1291C31.8527 47.9291 31.571 47.7443 31.4127 47.5737C31.345 47.4819 31.3029 47.3791 31.2505 47.0778" stroke="black" style="stroke:black;stroke-opacity:1;" stroke-linecap="round"/>
<path d="M21.2344 35.8303C21.2344 35.8229 21.3327 35.7329 21.5394 35.5937C21.9883 35.2913 22.6968 35.5824 23.2538 35.8754C23.7984 36.1619 24.116 36.9057 24.2929 37.4039C24.3979 37.6997 24.4512 38.3985 24.4286 39.2318C24.2967 39.6146 24.1156 39.7722 23.9285 39.9538C23.8262 40.0549 23.7089 40.1742 23.3775 40.4579" stroke="#EEEEEE" style="stroke:#EEEEEE;stroke:color(display-p3 0.9342 0.9342 0.9342);stroke-opacity:1;" stroke-linecap="round"/>
<path d="M21.0723 35.993C20.9553 36.0295 20.3695 36.2197 19.588 36.5009C18.6875 36.8249 17.6561 36.8617 16.591 36.9678C14.6129 37.165 13.3752 36.4678 12.4817 36.0002C11.497 35.4849 10.2342 34.0088 9.63664 33.2582C9.29855 32.8335 9.10705 32.3376 8.87374 31.6497C8.50939 30.5756 8.1971 28.987 7.95054 26.9455C7.73947 25.1979 7.28785 23.3392 6.74829 21.6991C6.24433 20.1673 5.56241 18.8859 5.03548 17.9472C4.52942 17.0457 3.46403 16.665 2.66811 16.2712C2.38589 16.1712 1.78744 16.0636 1.02093 15.9457C0.723929 15.8992 0.613666 15.8796 0.500061 15.8594" stroke="#EEEEEE" style="stroke:#EEEEEE;stroke:color(display-p3 0.9342 0.9342 0.9342);stroke-opacity:1;" stroke-linecap="round"/>
<path d="M2.43707 22.4375C2.51999 22.54 2.77216 23.0122 2.94533 23.5144C3.20693 24.2729 3.32677 26.0031 3.58332 27.1947C3.86608 28.5081 4.40148 29.5857 4.59981 30.1358C4.92374 31.0342 5.14499 32.1422 5.52947 33.5631C5.8446 34.7278 6.38016 35.513 6.58285 36.0163C6.97564 36.9915 7.46173 37.7681 8.29709 38.5177C9.34644 39.4593 10.0801 39.721 10.9347 39.9397C12.2344 40.2722 12.9682 40.486 13.5326 40.701C14.226 40.9651 14.9579 40.9954 15.9869 41.0705C16.7718 41.1277 17.7065 41.5067 19.5044 41.5068C20.819 41.2354 21.5992 40.9851 22.1551 40.7311C22.2745 40.6798 22.3848 40.6464 22.6106 40.5239" stroke="#EEEEEE" style="stroke:#EEEEEE;stroke:color(display-p3 0.9342 0.9342 0.9342);stroke-opacity:1;" stroke-linecap="round"/>
<path d="M5.31849 22.9656C5.20036 22.8173 4.60728 22.2081 4.07727 21.858C3.96749 21.7917 3.87067 21.7297 3.3723 21.6888C2.87393 21.6479 1.97696 21.6299 1.0528 21.6113" stroke="#EEEEEE" style="stroke:#EEEEEE;stroke:color(display-p3 0.9342 0.9342 0.9342);stroke-opacity:1;" stroke-linecap="round"/>
<path d="M41.1192 27.0039C41.2747 26.9022 41.797 26.4396 42.4612 25.8193C43.2891 25.0461 44.3555 24.5819 45.0104 24.171C45.6719 23.7561 46.0407 22.9156 46.3869 21.927C46.7838 20.7937 46.8938 18.077 46.7248 15.5045C46.4897 11.9239 46.7278 9.84249 47.5495 8.65374C48.6124 7.11599 50.258 5.73995 51.8828 4.46802C53.2883 3.36774 54.6056 3.38549 55.6053 3.07365C57.0429 2.62526 58.5605 2.25205 60.0367 1.97546C60.9081 1.82088 61.5777 1.67396 62.1092 1.58952C62.4773 1.55791 63.0454 1.54911 63.6306 1.54004" stroke="#EEEEEE" style="stroke:#EEEEEE;stroke:color(display-p3 0.9342 0.9342 0.9342);stroke-opacity:1;" stroke-linecap="round"/>
<path d="M43.793 31.2652C43.9762 31.1417 44.6082 30.6124 45.1472 29.9847C45.6253 29.4278 46.3588 29.0109 47.3177 28.4441C48.1759 27.937 48.733 26.886 49.6754 25.2355C50.4791 23.8279 50.9571 22.0564 51.6506 19.2882C52.0126 17.8433 51.6321 16.609 51.4165 15.6706C51.1572 14.3074 51.0588 13.735 51.0479 13.3552C51.0421 13.1662 51.0357 12.9849 51.1265 12.5986" stroke="#EEEEEE" style="stroke:#EEEEEE;stroke:color(display-p3 0.9342 0.9342 0.9342);stroke-opacity:1;" stroke-linecap="round"/>
<path d="M49.9254 14.3939C49.9749 14.2102 50.2563 13.025 50.6747 11.9036C50.9519 11.1605 51.7378 10.8613 52.887 10.1451C53.9534 9.48056 54.9709 8.87183 55.7522 8.36077C56.5849 7.81605 57.9251 7.1778 59.1878 6.72993C59.633 6.57174 60.0986 6.45117 61.034 6.36594C61.6827 6.33507 62.6845 6.32935 63.8161 6.30078" stroke="#EEEEEE" style="stroke:#EEEEEE;stroke:color(display-p3 0.9342 0.9342 0.9342);stroke-opacity:1;" stroke-linecap="round"/>
<path d="M22.7598 26.4297C22.6541 26.618 21.8714 27.8011 21.228 28.7281C20.6116 29.6162 20.275 30.5833 20.0995 31.4529C20.0575 31.9099 20.0236 32.3391 19.9965 33.0107C19.9874 33.5084 19.9874 34.3247 19.9874 35.1657" stroke="black" style="stroke:black;stroke-opacity:1;" stroke-linecap="round"/>
<path d="M21.627 41.7793C21.6768 41.9268 21.9667 42.4561 22.3643 43.1816C22.8598 44.0856 23.2121 45.0715 23.6514 45.9629C23.9349 46.5381 25.3435 48.6914 26.5311 50.2633C26.7082 50.4612 26.8777 50.6511 27.0632 50.8416C27.2486 51.0321 27.4449 51.2175 27.6978 51.4602" stroke="black" style="stroke:black;stroke-opacity:1;" stroke-linecap="round"/>
<path d="M28.5562 52.288C28.7533 52.4476 29.4653 52.989 30.3011 53.4153C31.1282 53.8371 31.9367 54.4202 32.8428 54.7473C33.8493 55.1106 34.8527 55.48 36.2063 55.7398C39.2243 56.3192 41.6886 55.7393 42.7074 55.442C43.6722 55.1604 44.5343 54.7544 45.3963 54.2861C46.2736 53.8095 47.2051 53.1168 47.8696 52.3195C48.5206 51.5382 48.9188 50.3959 49.4127 49.4181C49.6264 48.3962 49.6885 47.7117 49.7711 47.0734C49.8537 46.6684 49.7417 45.7081 49.752 45" stroke="black" style="stroke:black;stroke-opacity:1;" stroke-linecap="round"/>
<path d="M25.0658 28.5866C25.0465 28.7271 24.9912 29.5531 25.2328 30.507C25.5919 31.9248 26.2809 32.3305 26.5971 32.9405C26.7978 33.3277 27.0712 34.3608 27.756 35.9277C28.1876 36.9152 28.7927 37.5695 29.0278 37.8247C29.2891 38.1082 30.6422 38.1644 31.9 37.9057C33.8273 37.5092 34.0385 36.7196 34.614 36.3041C36.2169 35.147 36.8655 35.0205 37.5953 34.7178C38.2103 34.4627 38.9946 34.1607 39.5238 33.9487C39.9926 33.7609 40.4722 33.4669 40.736 33.2512C40.8584 33.1511 40.8643 32.9521 40.9002 32.7691C40.9904 32.31 40.4589 31.6921 40.1128 31.3344C39.6796 30.8867 38.6755 29.2562 38.1169 28.2833C37.7624 27.6658 37.4828 27.2034 37.1456 26.6457C36.9154 26.265 36.5481 25.8208 36.2452 25.436C36.0247 25.1559 35.7683 24.9026 35.5166 24.6702C35.1966 24.3746 34.6917 24.2783 34.2835 24.2103C33.7694 24.1246 33.0186 24.2228 32.0527 24.618C31.1474 24.9885 30.7737 25.3299 30.1687 25.7482C29.9401 25.9063 29.4836 26.0645 28.5488 26.4343C27.1487 27.0465 26.2064 27.4847 25.9975 27.6152C25.8925 27.6842 25.7895 27.7589 25.5866 27.9367" stroke="black" style="stroke:black;stroke-opacity:1;" stroke-linecap="round"/>
<path d="M39.0092 41.2797C38.9497 41.2885 38.7482 41.3692 38.4839 41.5133C38.1777 41.6801 37.8546 42.1744 37.5499 43.1694C37.1688 44.4139 37.6404 44.8137 38.0364 45.5111C38.3976 46.1473 39.0049 46.4425 39.6797 46.7228C39.903 46.8155 40.1448 46.8394 40.6105 46.8764C41.4605 46.9438 42.1095 46.8873 42.3659 46.818C43.035 46.6371 43.3439 46.2357 43.5398 46.0704C43.7248 45.9142 43.8415 45.6825 43.9962 45.3502C44.1166 45.0915 44.1522 44.872 44.1769 43.8956C44.188 43.4569 43.9001 43.0202 43.5467 42.4322C43.3362 42.0819 43.0136 41.7028 42.8051 41.4736C42.525 41.1658 41.8096 40.8767 41.35 40.7849C40.7754 40.7522 39.9502 40.7719 39.8468 40.8138C39.7962 40.8376 39.7496 40.8667 39.6144 40.9287" stroke="black" style="stroke:black;stroke-opacity:1;" stroke-linecap="round"/>
<path d="M37.13 37.9689C37.0955 38.0275 36.9925 38.2566 36.9462 38.5068C36.9125 38.6894 36.9772 38.8477 37.0548 38.9364C37.2104 39.1142 37.5249 39.1442 38.0637 39.1574C38.2267 39.1614 38.3438 39.0664 38.4669 38.9729C38.6787 38.8122 38.6997 38.4211 38.6794 38.1885C38.6377 38.0959 38.5861 37.9938 38.5143 37.8923C38.4683 37.8469 38.4029 37.8138 38.239 37.7432" stroke="black" style="stroke:black;stroke-opacity:1;" stroke-linecap="round"/>
<path d="M26.3126 29.3925C26.3201 29.4406 26.4547 29.7288 26.6443 30.1021C26.8388 30.485 26.9923 30.8106 27.1158 30.9608C27.2534 31.1282 27.3604 31.2334 27.4509 31.272C27.6198 31.3439 27.7805 31.2825 27.8431 31.2554C28.0704 31.157 28.28 30.9146 28.4974 30.7997C28.7386 30.6723 29.1484 30.4192 29.5695 30.1904C29.6415 30.1514 29.6691 30.1387 29.6899 30.1162C29.7108 30.0937 29.7251 30.0638 29.7304 30.0324C29.7598 29.8584 29.5103 29.5862 29.3458 29.4064C29.1599 29.2032 29.0127 28.8778 28.9317 28.649C28.8859 28.5198 28.7582 28.4284 28.6882 28.3123C28.6291 28.2142 28.4681 28.1756 28.3607 28.0958C28.2983 28.0495 28.0736 28.1713 27.7704 28.3421C27.264 28.6547 26.8658 28.907 26.7307 29.0133C26.7029 29.0326 26.6796 29.0444 26.6377 29.066" stroke="black" style="stroke:black;stroke-opacity:1;" stroke-linecap="round"/>
<path d="M27.7759 29.5928C27.7759 29.5942 27.7759 29.5956 27.7828 29.6094C27.7896 29.6232 27.8033 29.6493 27.8237 29.6571C27.8441 29.6649 27.8709 29.6538 27.9181 29.5973" stroke="black" style="stroke:black;stroke-opacity:1;" stroke-linecap="round"/>
<path d="M31.4097 26.8056C31.531 27.0011 31.8997 27.5385 32.0098 27.6967C32.113 27.8453 32.2693 28.22 32.4867 28.6759C32.5254 28.757 32.5661 28.7638 32.6016 28.7699C32.7717 28.7989 33.1028 28.4668 33.6777 28.0971C33.9666 27.9113 34.2795 27.8039 34.5346 27.6505C34.9176 27.4203 34.9965 27.361 35.054 27.338C35.0804 27.3274 35.0921 27.3013 35.0972 27.2653C35.1492 26.9023 34.872 26.3807 34.7263 26.1955C34.488 25.8923 34.2705 25.6641 34.1863 25.5469C34.1474 25.4928 34.0901 25.4697 34.0518 25.434C33.9646 25.3524 33.5866 25.4689 33.1654 25.5503C32.8755 25.6063 32.4706 26.037 32.2431 26.2364C32.1777 26.2595 32.118 26.2814 32.0626 26.3175C32.0369 26.3353 32.0159 26.3522 31.9942 26.3695" stroke="black" style="stroke:black;stroke-opacity:1;" stroke-linecap="round"/>
<path d="M33.1592 26.9865C33.1601 26.9865 33.1609 26.9865 33.1746 26.9836C33.1882 26.9806 33.2147 26.9746 33.2728 26.9414" stroke="black" style="stroke:black;stroke-opacity:1;" stroke-linecap="round"/>
<path d="M29.661 34.8537C29.6561 34.8995 29.6726 35.152 29.961 35.6981C30.1796 36.1121 30.4003 36.1342 30.567 36.267C30.7022 36.3747 30.7657 36.5945 30.8423 36.6955C30.8805 36.746 30.9724 36.7376 31.0539 36.7317C31.1202 36.7269 31.2145 36.6826 31.3751 36.5986C31.6019 36.4798 31.8574 36.251 32.1837 36.0018C32.7875 35.5407 32.9302 35.4864 33.0784 35.382C33.1905 35.303 33.2923 35.2941 33.3424 35.2613C33.4366 35.1997 33.3394 34.9731 33.2214 34.7212C33.1659 34.6025 32.9931 34.3393 32.7802 33.9532C32.6276 33.6764 32.3743 33.408 32.0961 33.1148C31.921 32.9302 31.8513 32.8048 31.802 32.7364C31.7669 32.6877 31.6432 32.7726 31.4128 32.931C31.0236 33.1985 30.6751 33.3959 30.5171 33.5047C30.3053 33.6343 30.0499 33.7887 29.6952 34.0589C29.6249 34.1261 29.5844 34.1831 29.5425 34.2419" stroke="black" style="stroke:black;stroke-opacity:1;" stroke-linecap="round"/>
<path d="M31.3209 34.624V34.6862" stroke="black" style="stroke:black;stroke-opacity:1;" stroke-linecap="round"/>
<path d="M27.9889 32.5625C27.9877 32.5625 28.0109 32.5463 28.062 32.5134C28.1192 32.4797 28.1838 32.4312 28.2448 32.3931C28.272 32.386 28.2916 32.4038 28.3401 32.4495" stroke="black" style="stroke:black;stroke-opacity:1;" stroke-linecap="round"/>
<path d="M28.4752 33.5713C28.5181 33.5278 28.7257 33.352 29.0084 33.1665C29.2452 33.011 29.5928 32.8075 29.7009 32.7021C29.6642 32.5251 29.5588 32.3341 29.449 32.1951C29.4254 32.165 29.4109 32.1425 29.3864 32.082" stroke="black" style="stroke:black;stroke-opacity:1;" stroke-linecap="round"/>
<path d="M30.2618 31.0352C30.2748 31.0695 30.3717 31.2263 30.462 31.3622C30.4873 31.4026 30.5232 31.4589 30.5491 31.5015C30.575 31.5441 30.5898 31.5713 30.6051 31.5994" stroke="black" style="stroke:black;stroke-opacity:1;" stroke-linecap="round"/>
<path d="M29.7418 27.7228C29.7768 27.7154 29.9243 27.6698 30.0548 27.6095C30.1527 27.5592 30.2209 27.5197 30.2643 27.4905C30.2857 27.4746 30.3057 27.4563 30.3262 27.4375" stroke="black" style="stroke:black;stroke-opacity:1;" stroke-linecap="round"/>
<path d="M30.2964 28.6807L30.328 28.7056" stroke="black" style="stroke:black;stroke-opacity:1;" stroke-linecap="round"/>
<path d="M30.8282 29.6556C30.8689 29.6323 30.988 29.5442 31.0851 29.471C31.2131 29.3745 31.3199 29.3245 31.4462 29.2812C31.5101 29.2593 31.5593 29.216 31.5887 29.1758C31.585 29.1282 31.5601 29.0781 31.5302 29.0272C31.5144 29.0002 31.4976 28.9707 31.4627 28.9141" stroke="black" style="stroke:black;stroke-opacity:1;" stroke-linecap="round"/>
<path d="M31.3848 30.7686C31.4368 30.7418 31.6032 30.6663 31.867 30.4925C31.9469 30.4398 32.0221 30.3895 32.1095 30.3449C32.1427 30.328 32.1654 30.356 32.1852 30.3884C32.2242 30.4653 32.2584 30.5379 32.2875 30.5989C32.3021 30.6332 32.3164 30.6741 32.3311 30.7162" stroke="black" style="stroke:black;stroke-opacity:1;" stroke-linecap="round"/>
<path d="M32.5489 31.9944C32.5489 31.996 32.5578 32.0231 32.582 32.0696C32.5938 32.0922 32.619 32.1035 32.6815 32.081C33.0209 31.9586 33.1609 31.8056 33.3704 31.6712C33.4184 31.6405 33.4503 31.6222 33.4792 31.6078C33.5081 31.5934 33.533 31.5835 33.5587 31.5732" stroke="black" style="stroke:black;stroke-opacity:1;" stroke-linecap="round"/>
<path d="M33.2667 29.7637L33.3142 29.8259" stroke="black" style="stroke:black;stroke-opacity:1;" stroke-linecap="round"/>
<path d="M34.2628 29.103C34.3075 29.0885 34.4387 29.0161 34.6343 28.8971C34.8041 28.8007 34.9711 28.7138 35.123 28.6431C35.2076 28.6027 35.3073 28.5533 35.4361 28.4863" stroke="black" style="stroke:black;stroke-opacity:1;" stroke-linecap="round"/>
<path d="M34.3028 30.2773C34.3065 30.3123 34.3866 30.4912 34.497 30.6551C34.6089 30.8213 34.67 30.9602 34.7451 31.0602C34.7952 31.0691 34.9143 31.0086 35.0628 30.9129C35.1208 30.8757 35.1437 30.8617 35.1916 30.8249" stroke="black" style="stroke:black;stroke-opacity:1;" stroke-linecap="round"/>
<path d="M35.4634 29.758C35.4922 29.7408 35.6223 29.655 35.8426 29.5358C35.8891 29.5106 35.9178 29.506 35.9445 29.5084C36.0552 29.5871 36.1992 29.7794 36.2979 29.9089C36.3194 29.9352 36.3436 29.9589 36.3717 29.9872" stroke="black" style="stroke:black;stroke-opacity:1;" stroke-linecap="round"/>
<path d="M33.4254 32.9131C33.4254 32.9147 33.4436 32.9484 33.4826 33.0088C33.5034 33.0365 33.5263 33.0581 33.5476 33.078C33.5688 33.0979 33.5877 33.1155 33.6338 33.1506" stroke="black" style="stroke:black;stroke-opacity:1;" stroke-linecap="round"/>
<path d="M34.4175 34.3711C34.4186 34.3721 34.4196 34.3731 34.4251 34.3873C34.4305 34.4015 34.4404 34.4289 34.4517 34.466" stroke="black" style="stroke:black;stroke-opacity:1;" stroke-linecap="round"/>
<path d="M34.3614 32.3066C34.3614 32.3077 34.3614 32.3088 34.3688 32.3222C34.3763 32.3356 34.3911 32.3612 34.4133 32.3932" stroke="black" style="stroke:black;stroke-opacity:1;" stroke-linecap="round"/>
<path d="M35.1495 33.2318C35.1609 33.2646 35.2195 33.3689 35.302 33.4886C35.3726 33.5911 35.4502 33.6862 35.5025 33.7905C35.5589 33.903 35.7811 33.6179 36.0142 33.5089C36.1816 33.4306 36.3128 33.368 36.4113 33.3017C36.4545 33.2726 36.502 33.2553 36.5574 33.2438C36.5876 33.2356 36.6219 33.2225 36.6737 33.2051" stroke="black" style="stroke:black;stroke-opacity:1;" stroke-linecap="round"/>
<path d="M35.5699 32.0208C35.6141 31.9918 35.7493 31.8964 35.8848 31.7987C35.9301 31.768 35.9878 31.7314 36.031 31.7067C36.0742 31.682 36.1014 31.6703 36.1596 31.6387" stroke="black" style="stroke:black;stroke-opacity:1;" stroke-linecap="round"/>
<path d="M36.8931 30.9258C36.9198 30.9503 37.0054 31.0504 37.1311 31.2063C37.1919 31.2943 37.2376 31.3591 37.2727 31.4025C37.2908 31.4264 37.3096 31.4541 37.3498 31.5037" stroke="black" style="stroke:black;stroke-opacity:1;" stroke-linecap="round"/>
<path d="M37.7237 32.4766L37.7272 32.4801" stroke="black" style="stroke:black;stroke-opacity:1;" stroke-linecap="round"/>
<path d="M37.8645 57.0938C37.8643 57.3488 37.8127 58.25 37.7144 59.0818C37.68 59.4224 37.6467 59.8082 37.611 60.5489C37.5942 61.058 37.5801 61.8376 37.5655 62.6408" stroke="#EEEEEE" style="stroke:#EEEEEE;stroke:color(display-p3 0.9342 0.9342 0.9342);stroke-opacity:1;" stroke-linecap="round"/>
<path d="M44.8862 55.9326C44.8862 55.937 44.8862 56.4135 44.8768 57.1753C44.8721 57.5504 44.8103 58.5232 44.7699 59.961C44.7243 60.7089 44.6886 61.0277 44.6644 61.4259C44.6513 61.7058 44.6365 62.1438 44.6212 62.5951" stroke="#EEEEEE" style="stroke:#EEEEEE;stroke:color(display-p3 0.9342 0.9342 0.9342);stroke-opacity:1;" stroke-linecap="round"/>
</svg>
