<svg width="64" height="64" viewBox="0 0 64 64" fill="none" xmlns="http://www.w3.org/2000/svg">
<rect width="64" height="64" fill="#FAFAFA" style="fill:#FAFAFA;fill:color(display-p3 0.9804 0.9804 0.9804);fill-opacity:1;"/>
<path d="M12.078 21.8604C12.078 21.8924 12.0604 23.9793 11.9276 28.7872C11.8519 31.5262 11.6003 34.8669 11.4667 36.729C11.3332 38.5912 11.2848 38.872 11.2579 41.5102C11.231 44.1485 11.2271 49.1357 11.2622 51.8826C11.2973 54.6294 11.3714 54.9846 11.8727 55.3982C14.3872 57.4729 17.3253 58.6042 19.1103 59.3811C19.6298 59.6072 20.3522 59.6446 21.1925 59.6666C21.9476 59.6864 26.4552 59.7583 33.0639 59.6717C36.1764 59.6309 38.1026 59.0159 40.1587 58.4949C43.0821 57.754 47.0106 57.0783 48.7782 56.3318C49.7332 55.9284 50.4819 55.451 50.9908 55.0358C53.5289 52.9648 51.2823 46.3358 51.1644 43.3018C51.0679 40.8147 51.1227 36.3975 51.1 33.9342C50.8431 29.2425 50.5354 25.3304 50.5061 23.7617C50.4901 23.1352 50.4714 22.8531 50.4523 22.5625" stroke="black" style="stroke:black;stroke-opacity:1;" stroke-linecap="round"/>
<path d="M12.4048 32.6348C12.4218 34.0516 12.5269 37.4269 13.1097 39.1938C13.2466 39.6088 13.454 39.832 13.6626 39.9894C14.0676 40.2949 14.6244 40.2855 15.1023 40.1982C16.1954 39.9985 16.6982 37.3047 17.0569 35.7109C17.1173 35.4423 17.2403 35.2058 17.4322 35.041C17.8331 34.6968 18.4697 34.6947 18.9662 34.774C19.8918 34.922 19.5518 38.4285 19.4531 42.762C19.3546 47.079 19.1256 51.3812 19.3953 51.9043C19.6427 52.384 20.1765 52.5488 20.7514 52.6062C21.0759 52.6386 21.471 52.6257 21.7454 52.5111C22.9129 52.0237 22.9359 50.0459 22.8011 48.7889C22.5311 46.2698 21.5985 44.0583 21.8261 41.913C21.9901 40.3675 22.8862 38.3632 23.5211 37.0536C23.776 36.5278 23.9363 35.9374 24.2819 35.4558C24.6357 34.9628 25.2619 34.8162 25.7934 34.8157C26.058 34.8154 26.2964 34.9978 26.435 35.1932C26.7099 35.5808 26.6297 36.5586 26.742 37.7436C26.8312 38.6842 27.5325 39.1144 27.9964 39.3095C28.4665 39.5072 29.1327 39.4637 29.7591 39.3236C31.1988 39.0017 30.4671 36.3817 30.9768 36.1579C31.2394 36.0426 31.5653 36.0788 31.8024 36.1884C33.512 36.9784 32.4949 41.032 33.0568 41.9739C33.2016 42.2164 33.4419 42.3867 33.6732 42.5058C33.9044 42.625 34.1576 42.6606 34.3882 42.5699C36.1402 41.8802 34.7873 37.4155 34.6675 36.265C34.6458 36.0566 34.9964 35.9701 35.2406 35.9492C35.7348 35.9069 36.3094 36.1759 36.843 36.4788C39.0442 37.7286 37.2433 42.9556 37.2568 46.7254C37.2597 47.5381 37.4565 47.7697 37.668 47.9591C38.6742 48.8603 40.2341 48.6588 40.9719 48.5683C42.9558 48.3249 41.5583 43.3303 41.2102 42.1969C40.6269 40.2977 40.4379 37.3176 40.8261 35.8568C40.965 35.3343 41.7417 35.173 42.375 34.9742C43.0265 34.7697 43.6555 34.9462 44.1355 35.2723C44.7707 35.7038 45.0237 36.4205 45.4943 36.6282C45.7307 36.7326 45.9927 36.7586 46.198 36.6558C46.6457 36.4315 46.8782 35.6124 47.2735 34.9002C48.6209 34.3649 50.0403 34.2192 50.4584 33.8596C50.6574 33.6457 50.8294 33.3681 51.1175 32.7427" stroke="black" style="stroke:black;stroke-opacity:1;" stroke-linecap="round"/>
<path d="M14.9275 7.10352C14.9275 7.12277 14.9015 7.60863 14.94 8.42602C14.9905 9.4995 16.2711 10.2607 17.4545 11.6866C18.3545 12.771 19.1159 14.273 19.8211 16.1476C20.4004 17.6873 20.5569 19.5507 20.6845 23.2124C21.0554 25.5232 21.4798 26.6729 21.7477 27.1591C21.9033 27.4086 22.0988 27.6634 22.446 28.0718" stroke="black" style="stroke:black;stroke-opacity:1;" stroke-linecap="round"/>
<path d="M15.6055 6.59896C15.6055 6.56558 15.7637 6.34556 16.1266 5.99027C16.4947 5.62996 17.3925 5.62148 18.3474 5.65774C18.9828 5.68187 19.4444 6.15485 19.9412 6.55795C20.9734 7.39545 20.8697 8.76501 21.2653 9.78392C21.6932 10.8859 22.2443 11.9325 22.7471 13.1404C23.3748 14.6481 23.9366 15.604 24.843 16.2879C25.716 16.9466 26.974 17.2399 27.8105 18.0472C28.9238 19.1215 29.8363 21.6939 31.2606 25.2642C31.5214 25.9129 31.6029 26.1481 31.7112 26.3954C31.8194 26.6428 31.952 26.895 32.3462 27.4885" stroke="black" style="stroke:black;stroke-opacity:1;" stroke-linecap="round"/>
<path d="M12.4678 21.6465C12.4678 21.9385 12.5978 22.7724 12.8822 23.2699C13.1903 23.8088 13.5236 24.5069 13.942 25.0071C14.6951 25.9076 15.4854 26.4109 16.0373 26.9153C16.5385 27.3735 17.2117 27.6141 17.7546 27.8608C18.3364 28.1251 18.8167 28.2596 19.5082 28.445C20.5939 28.7361 21.7474 28.8528 22.6064 29.0619C23.625 29.3099 24.737 29.5218 26.006 29.631C27.9365 29.7972 29.2752 29.7794 29.7415 29.8991C30.4549 30.0823 32.3307 30.1239 34.5752 30.1703C36.3921 30.2079 37.9139 29.6022 38.8407 29.3334C40.4483 28.8671 42.3144 28.2802 43.4198 27.7974C44.2633 27.429 45.5417 26.9622 46.1799 26.6296C46.7423 26.3365 47.0858 25.7392 47.538 25.188C48.1237 24.4739 48.6728 24.0237 49.0936 23.3931C49.2353 23.139 49.3517 22.9407 49.4607 22.7343C49.507 22.6212 49.5349 22.4909 49.5785 22.3005" stroke="black" style="stroke:black;stroke-opacity:1;" stroke-linecap="round"/>
<path d="M12.2891 20.9529C12.306 20.8179 12.3969 20.3276 12.7124 19.5674C13.0554 18.741 13.7662 18.2614 14.2394 17.9209C14.6797 17.6041 15.3118 17.3297 15.8928 17.0632C16.7574 16.6028 17.3409 16.345 17.696 16.2554C17.8569 16.2246 17.9788 16.2237 18.1606 16.2399" stroke="black" style="stroke:black;stroke-opacity:1;" stroke-linecap="round"/>
<path d="M25.4746 14.4871C25.7147 14.4484 26.5893 14.3238 27.197 14.2472C27.7567 14.1767 28.5138 14.0441 31.1121 14.0152C32.3306 14.0016 33.2439 14.0842 34.4697 14.1201C35.1039 14.1387 35.9904 14.2002 37.4206 14.3861C38.1168 14.4766 38.9916 14.5891 40.1633 14.6749C42.5078 14.8465 43.9577 15.4199 45.0356 15.9272C45.6663 16.224 46.3104 16.8909 46.8805 17.3223C47.328 17.6609 47.8327 17.9256 48.3068 18.2424C48.771 18.6218 49.175 19.1811 49.4472 19.9877C49.4831 20.2769 49.4949 20.6883 49.4735 21.123" stroke="black" style="stroke:black;stroke-opacity:1;" stroke-linecap="round"/>
<path d="M14.086 23.656C14.0745 23.532 14.0108 23.0575 13.9818 22.1123C13.9594 21.3829 14.2234 20.9054 14.6418 20.3843C15.0425 19.8853 15.561 19.6394 16.014 19.4419C16.5574 19.205 17.1829 18.9011 18.1513 18.5914C18.3754 18.5264 18.5104 18.4917 18.6341 18.4581C18.7578 18.4246 18.8662 18.3932 19.2342 18.2637" stroke="black" style="stroke:black;stroke-opacity:1;" stroke-linecap="round"/>
<path d="M26.0107 16.1094C26.192 16.1094 26.817 16.0239 27.3779 15.9273C28.3864 15.7535 30.2017 15.9259 31.0315 16.0104C32.361 16.1458 32.9134 16.244 33.6757 16.2868C34.4801 16.332 37.3054 16.3903 39.0469 16.4709C40.0876 16.519 41.619 16.5379 42.1049 16.6128C42.6744 16.7006 43.2809 16.9907 43.9564 17.2815C45.0204 17.7395 45.5355 18.2502 45.9519 18.6623C46.3449 19.0512 46.9193 19.5939 47.3716 20.23C48.0759 21.2207 48.0191 21.9936 48.1282 22.4937C48.1551 22.627 48.188 22.7686 48.2099 22.9191C48.2317 23.0695 48.2415 23.2247 48.2516 23.3845" stroke="black" style="stroke:black;stroke-opacity:1;" stroke-linecap="round"/>
<path d="M32.4155 27.7852C32.4155 27.8033 32.4885 27.9203 32.6296 28.1371C32.7589 28.354 32.875 28.5658 32.9794 28.7685C33.0307 28.8704 33.0786 28.9703 33.1293 29.1028" stroke="black" style="stroke:black;stroke-opacity:1;" stroke-linecap="round"/>
<path d="M21.8306 25.7704C21.8707 25.6381 22.0719 25.227 22.3525 24.866C22.8463 24.2308 24.0428 25.2949 24.236 25.3568C24.6483 25.4892 24.6844 24.6756 24.9208 24.4747C25.4972 23.9849 26.014 24.6241 26.1717 24.652C26.6509 24.7367 26.7002 23.6612 27.1411 23.4127C27.6456 23.1284 28.202 23.8582 28.3891 23.8921C28.5994 23.9301 28.6769 23.3268 28.955 22.9525C29.2116 22.7581 29.4935 22.706 29.7808 22.7367C29.9119 22.7673 30.013 22.8286 30.1173 22.8918" stroke="black" style="stroke:black;stroke-opacity:1;" stroke-linecap="round"/>
</svg>
